<?xml version='1.0' encoding='UTF-8'?>
<svg xmlns="http://www.w3.org/2000/svg" version="1.1" width="554" height="488">
<path d="M0 0 C2.36980258 0.02994597 4.73969108 0.05378878 7.10961914 0.07116699 C26.07614261 0.22930638 41.08437796 2.48756463 55.64733887 15.81488037 C67.92417315 29.16370434 70.70239346 44.51503882 71.15124512 61.98284912 C71.18991699 63.22550537 71.22858887 64.46816162 71.26843262 65.74847412 C71.36185779 68.78479231 71.44762631 71.82111762 71.52624512 74.85784912 C73.98465117 74.88476598 76.44276393 74.90464714 78.90124512 74.92034912 C79.94925293 74.93291748 79.94925293 74.93291748 81.01843262 74.94573975 C84.89919888 75.04139332 84.89919888 75.04139332 88.52624512 73.85784912 C88.52624512 74.51784912 88.52624512 75.17784912 88.52624512 75.85784912 C89.46346405 75.84785637 89.46346405 75.84785637 90.4196167 75.83766174 C96.97431242 75.77083856 103.52890999 75.7258552 110.0838623 75.6930542 C112.52400652 75.67804935 114.96412413 75.65763898 117.4041748 75.63153076 C120.92930704 75.59478061 124.45407999 75.5780391 127.97937012 75.56488037 C129.59262177 75.54165459 129.59262177 75.54165459 131.23846436 75.51795959 C147.50127743 75.51441688 161.6517989 81.1592625 174.52624512 90.85784912 C175.51624512 91.51784912 176.50624512 92.17784912 177.52624512 92.85784912 C179.35175744 94.8493171 181.07216843 96.91263483 182.80749512 98.98284912 C184.57957598 101.0656709 184.57957598 101.0656709 187.52624512 102.85784912 C187.52624512 103.51784912 187.52624512 104.17784912 187.52624512 104.85784912 C188.39385934 106.10709434 189.29636017 107.33218264 190.21374512 108.54534912 C197.59261778 119.31640495 199.67339833 132.16238207 199.68014526 144.962677 C199.68452752 145.97740259 199.68890977 146.99212817 199.69342482 148.03760302 C199.70677503 151.43650859 199.71298325 154.83538826 199.71911621 158.23431396 C199.72702029 160.67226274 199.73528943 163.11021035 199.74389648 165.54815674 C199.76782416 172.86355147 199.78304061 180.17894788 199.79595655 187.49436802 C199.79967282 189.56332993 199.8036457 191.6322912 199.80770922 193.70125246 C199.83295268 206.5706614 199.85498885 219.44007152 199.86743736 232.30949974 C199.87036669 235.28736754 199.8733284 238.26523531 199.87634277 241.24310303 C199.87708882 241.98316674 199.87783487 242.72323046 199.87860353 243.48572035 C199.8912398 255.45707628 199.92444268 267.4282831 199.96614461 279.39956944 C200.00868198 291.71245271 200.03214604 304.02525991 200.03735793 316.33821642 C200.04075895 323.24243919 200.05235822 330.14642904 200.08546066 337.05057907 C200.11658715 343.55297024 200.12181218 350.05506795 200.1100769 356.55752563 C200.10985711 358.93418514 200.11808325 361.31086404 200.13573074 363.68745804 C200.29232479 386.00461487 196.62890325 404.55408322 180.44030762 421.06488037 C166.65750968 434.55043814 150.38952347 439.76515922 131.52624512 440.85784912 C131.52624512 441.18784912 131.52624512 441.51784912 131.52624512 441.85784912 C124.90124512 441.98284912 124.90124512 441.98284912 121.52624512 440.85784912 C119.19328372 440.8161891 116.85920652 440.8161891 114.52624512 440.85784912 C113.53624512 440.85784912 112.54624512 440.85784912 111.52624512 440.85784912 C110.53624512 441.02284912 109.54624512 441.18784912 108.52624512 441.35784912 C105.79403163 441.81321804 103.28432193 441.85784912 100.52624512 441.85784912 C100.19624512 441.52784912 99.86624512 441.19784912 99.52624512 440.85784912 C99.52624512 441.18784912 99.52624512 441.51784912 99.52624512 441.85784912 C97.52624512 441.85784912 95.52624512 441.85784912 93.52624512 441.85784912 C93.19624512 441.19784912 92.86624512 440.53784912 92.52624512 439.85784912 C92.19624512 440.51784912 91.86624512 441.17784912 91.52624512 441.85784912 C90.53624512 441.85784912 89.54624512 441.85784912 88.52624512 441.85784912 C88.19624512 441.52784912 87.86624512 441.19784912 87.52624512 440.85784912 C86.53624512 441.18784912 85.54624512 441.51784912 84.52624512 441.85784912 C84.19624512 441.52784912 83.86624512 441.19784912 83.52624512 440.85784912 C82.53624512 441.18784912 81.54624512 441.51784912 80.52624512 441.85784912 C80.19624512 441.52784912 79.86624512 441.19784912 79.52624512 440.85784912 C77.95062352 440.75857672 76.37061467 440.72704959 74.79187012 440.72503662 C73.82507324 440.72374756 72.85827637 440.7224585 71.86218262 440.72113037 C70.84382324 440.72499756 69.82546387 440.72886475 68.77624512 440.73284912 C67.77335449 440.72898193 66.77046387 440.72511475 65.73718262 440.72113037 C64.76522949 440.72241943 63.79327637 440.7237085 62.79187012 440.72503662 C61.90273926 440.72616455 61.0136084 440.72729248 60.09753418 440.72845459 C57.47626769 440.79480864 57.47626769 440.79480864 54.75964355 441.4286499 C54.02262207 441.57028564 53.28560059 441.71192139 52.52624512 441.85784912 C52.19624512 441.52784912 51.86624512 441.19784912 51.52624512 440.85784912 C51.52624512 441.18784912 51.52624512 441.51784912 51.52624512 441.85784912 C46.52624512 441.85784912 41.52624512 441.85784912 36.52624512 441.85784912 C36.52624512 441.19784912 36.52624512 440.53784912 36.52624512 439.85784912 C35.74249512 440.04347412 34.95874512 440.22909912 34.15124512 440.42034912 C31.52624512 440.85784912 31.52624512 440.85784912 29.52624512 439.85784912 C29.19624512 440.51784912 28.86624512 441.17784912 28.52624512 441.85784912 C17.85957845 441.85784912 7.19291178 441.85784912 -3.47375488 441.85784912 C-3.47375488 441.19784912 -3.47375488 440.53784912 -3.47375488 439.85784912 C-4.29359863 440.02284912 -5.11344238 440.18784912 -5.95812988 440.35784912 C-9.93214556 440.92304246 -13.72061239 440.93116675 -17.72375488 440.85784912 C-22.74665001 440.55354995 -22.74665001 440.55354995 -27.47375488 441.85784912 C-27.47375488 441.19784912 -27.47375488 440.53784912 -27.47375488 439.85784912 C-28.13375488 439.85784912 -28.79375488 439.85784912 -29.47375488 439.85784912 C-29.80375488 440.51784912 -30.13375488 441.17784912 -30.47375488 441.85784912 C-31.21625488 441.69284912 -31.95875488 441.52784912 -32.72375488 441.35784912 C-37.04889953 440.78116317 -41.21530707 440.83064814 -45.57141113 440.92034912 C-48.33743178 440.86078475 -50.78649878 440.4889845 -53.47375488 439.85784912 C-53.47375488 440.51784912 -53.47375488 441.17784912 -53.47375488 441.85784912 C-55.47330234 441.90039268 -57.47417125 441.89865695 -59.47375488 441.85784912 C-59.80375488 441.52784912 -60.13375488 441.19784912 -60.47375488 440.85784912 C-61.46375488 441.18784912 -62.45375488 441.51784912 -63.47375488 441.85784912 C-63.47375488 441.19784912 -63.47375488 440.53784912 -63.47375488 439.85784912 C-64.79375488 439.85784912 -66.11375488 439.85784912 -67.47375488 439.85784912 C-67.47375488 440.51784912 -67.47375488 441.17784912 -67.47375488 441.85784912 C-70.11375488 441.85784912 -72.75375488 441.85784912 -75.47375488 441.85784912 C-75.47375488 441.19784912 -75.47375488 440.53784912 -75.47375488 439.85784912 C-76.77312988 440.00222412 -78.07250488 440.14659912 -79.41125488 440.29534912 C-80.14215332 440.37656006 -80.87305176 440.457771 -81.62609863 440.54144287 C-83.48515717 440.67671526 -83.48515717 440.67671526 -84.47375488 441.85784912 C-86.80671628 441.89950915 -89.14079348 441.89950915 -91.47375488 441.85784912 C-91.80375488 441.85784912 -92.13375488 441.85784912 -92.47375488 441.85784912 C-93.97375488 441.69118245 -95.47375488 441.52451579 -96.97375488 441.35784912 C-101.17510617 440.92509191 -105.27097278 440.82926356 -109.48937988 440.88909912 C-111.9028602 440.85109156 -114.13942594 440.46025659 -116.47375488 439.85784912 C-116.47375488 440.51784912 -116.47375488 441.17784912 -116.47375488 441.85784912 C-120.3318883 441.93204399 -123.77000857 441.96897302 -127.47375488 440.85784912 C-129.13895007 440.51724101 -130.80532954 440.18226516 -132.47375488 439.85784912 C-132.47375488 440.51784912 -132.47375488 441.17784912 -132.47375488 441.85784912 C-136.04373614 441.93898506 -139.03202617 441.7182813 -142.47375488 440.85784912 C-144.47338516 440.81939469 -146.47427121 440.81240631 -148.47375488 440.85784912 C-148.47375488 441.18784912 -148.47375488 441.51784912 -148.47375488 441.85784912 C-150.80670264 441.90026635 -153.14078055 441.8987785 -155.47375488 441.85784912 C-155.80375488 441.52784912 -156.13375488 441.19784912 -156.47375488 440.85784912 C-157.13375488 441.18784912 -157.79375488 441.51784912 -158.47375488 441.85784912 C-159.13375488 441.52784912 -159.79375488 441.19784912 -160.47375488 440.85784912 C-161.79375488 440.85784912 -163.11375488 440.85784912 -164.47375488 440.85784912 C-168.47375488 440.85784912 -168.47375488 440.85784912 -170.47375488 439.85784912 C-170.80375488 440.51784912 -171.13375488 441.17784912 -171.47375488 441.85784912 C-171.47375488 441.19784912 -171.47375488 440.53784912 -171.47375488 439.85784912 C-174.59666124 440.34363455 -177.46955847 440.85645032 -180.47375488 441.85784912 C-182.80674148 441.89807303 -185.14082154 441.90105159 -187.47375488 441.85784912 C-187.80375488 441.85784912 -188.13375488 441.85784912 -188.47375488 441.85784912 C-189.46375488 441.85784912 -190.45375488 441.85784912 -191.47375488 441.85784912 C-191.47375488 441.19784912 -191.47375488 440.53784912 -191.47375488 439.85784912 C-195.50368271 440.41097647 -199.49398412 441.01365532 -203.47375488 441.85784912 C-203.47375488 441.19784912 -203.47375488 440.53784912 -203.47375488 439.85784912 C-204.26435303 439.86308594 -205.05495117 439.86832275 -205.86950684 439.87371826 C-209.50841452 439.89471554 -213.14730938 439.90758089 -216.78625488 439.92034912 C-218.02955566 439.92872803 -219.27285645 439.93710693 -220.55383301 439.94573975 C-227.92236519 439.96507973 -235.15132664 439.69688721 -242.47375488 438.85784912 C-242.47375488 438.19784912 -242.47375488 437.53784912 -242.47375488 436.85784912 C-244.03534548 436.37572698 -245.59807416 435.89729039 -247.16125488 435.42034912 C-248.03137207 435.15351318 -248.90148926 434.88667725 -249.79797363 434.61175537 C-254.70091191 432.93181257 -254.70091191 432.93181257 -259.47375488 433.85784912 C-259.14375488 432.20784912 -258.81375488 430.55784912 -258.47375488 428.85784912 C-259.46375488 428.23909912 -260.45375488 427.62034912 -261.47375488 426.98284912 C-262.46375488 426.28159912 -263.45375488 425.58034912 -264.47375488 424.85784912 C-264.47375488 424.19784912 -264.47375488 423.53784912 -264.47375488 422.85784912 C-265.46375488 422.52784912 -266.45375488 422.19784912 -267.47375488 421.85784912 C-269.03398888 420.09693285 -270.52650501 418.27524104 -271.97375488 416.42034912 C-274.40563317 413.31159804 -276.18053101 411.0533317 -279.47375488 408.85784912 C-280.16125488 406.73284912 -280.16125488 406.73284912 -280.47375488 404.85784912 C-281.46375488 405.18784912 -282.45375488 405.51784912 -283.47375488 405.85784912 C-283.47375488 405.19784912 -283.47375488 404.53784912 -283.47375488 403.85784912 C-282.81375488 403.52784912 -282.15375488 403.19784912 -281.47375488 402.85784912 C-281.66711426 402.24038818 -281.86047363 401.62292725 -282.05969238 400.98675537 C-283.63038755 395.8781082 -284.97617698 390.83043795 -285.94641113 385.57269287 C-286.12043457 385.00679443 -286.29445801 384.440896 -286.47375488 383.85784912 C-287.13375488 383.52784912 -287.79375488 383.19784912 -288.47375488 382.85784912 C-288.47375488 381.86784912 -288.47375488 380.87784912 -288.47375488 379.85784912 C-287.81375488 379.85784912 -287.15375488 379.85784912 -286.47375488 379.85784912 C-286.80375488 373.91784912 -287.13375488 367.97784912 -287.47375488 361.85784912 C-287.80375488 361.85784912 -288.13375488 361.85784912 -288.47375488 361.85784912 C-288.50080797 359.44110688 -288.52061926 357.02466972 -288.53625488 354.60784912 C-288.54463379 353.92593506 -288.5530127 353.244021 -288.56164551 352.54144287 C-288.57816838 349.13773069 -288.42422446 346.12508829 -287.47375488 342.85784912 C-287.43530045 340.85821884 -287.42831207 338.85733279 -287.47375488 336.85784912 C-287.80375488 336.85784912 -288.13375488 336.85784912 -288.47375488 336.85784912 C-288.47375488 332.23784912 -288.47375488 327.61784912 -288.47375488 322.85784912 C-288.14375488 322.85784912 -287.81375488 322.85784912 -287.47375488 322.85784912 C-287.44691501 319.87862319 -287.42699451 316.89963617 -287.41125488 313.92034912 C-287.39868652 312.64514404 -287.39868652 312.64514404 -287.38586426 311.34417725 C-287.38103027 310.13084717 -287.38103027 310.13084717 -287.37609863 308.89300537 C-287.37086182 308.14414062 -287.365625 307.39527588 -287.36022949 306.62371826 C-287.28033736 304.83117173 -287.28033736 304.83117173 -288.47375488 303.85784912 C-288.51456271 301.85826548 -288.51629845 299.85739658 -288.47375488 297.85784912 C-288.14375488 297.85784912 -287.81375488 297.85784912 -287.47375488 297.85784912 C-287.45312988 296.59972412 -287.43250488 295.34159912 -287.41125488 294.04534912 C-287.39965332 293.33765381 -287.38805176 292.6299585 -287.37609863 291.90081787 C-287.39112271 289.65479451 -287.39112271 289.65479451 -288.47375488 286.85784912 C-288.47375488 282.85784912 -288.47375488 282.85784912 -287.47375488 281.85784912 C-287.80375488 281.85784912 -288.13375488 281.85784912 -288.47375488 281.85784912 C-288.47375488 279.21784912 -288.47375488 276.57784912 -288.47375488 273.85784912 C-288.14375488 273.85784912 -287.81375488 273.85784912 -287.47375488 273.85784912 C-287.47375488 270.55784912 -287.47375488 267.25784912 -287.47375488 263.85784912 C-287.80375488 263.85784912 -288.13375488 263.85784912 -288.47375488 263.85784912 C-288.56323101 260.63670869 -288.34425319 257.9529542 -287.47375488 254.85784912 C-287.13314678 253.19265394 -286.79817092 251.52627446 -286.47375488 249.85784912 C-287.13375488 249.85784912 -287.79375488 249.85784912 -288.47375488 249.85784912 C-289.82590659 246.47746986 -289.03533242 244.47153608 -287.95812988 241.12347412 C-286.8118298 235.76174795 -286.63809285 229.18754126 -287.97766113 223.85003662 C-288.66195263 221.1020944 -288.60564129 218.49721998 -288.59875488 215.67034912 C-288.60133301 214.60429443 -288.60391113 213.53823975 -288.60656738 212.43988037 C-288.47375488 209.85784912 -288.47375488 209.85784912 -287.47375488 208.85784912 C-287.38513496 206.04621532 -287.35853133 203.25926657 -287.37609863 200.44769287 C-287.37751358 199.60565811 -287.37892853 198.76362335 -287.38038635 197.89607239 C-287.38600225 195.19579577 -287.3985574 192.49560085 -287.41125488 189.79534912 C-287.41626784 187.96917844 -287.4208311 186.14300646 -287.42492676 184.3168335 C-287.43597684 179.8304737 -287.45325209 175.34417528 -287.47375488 170.85784912 C-287.80375488 170.85784912 -288.13375488 170.85784912 -288.47375488 170.85784912 C-288.47375488 169.20784912 -288.47375488 167.55784912 -288.47375488 165.85784912 C-287.81375488 165.85784912 -287.15375488 165.85784912 -286.47375488 165.85784912 C-286.78312988 165.34222412 -287.09250488 164.82659912 -287.41125488 164.29534912 C-289.50834287 159.48438256 -289.85009009 154.90441154 -288.47375488 149.85784912 C-288.14375488 149.85784912 -287.81375488 149.85784912 -287.47375488 149.85784912 C-287.47375488 144.57784912 -287.47375488 139.29784912 -287.47375488 133.85784912 C-286.81375488 133.85784912 -286.15375488 133.85784912 -285.47375488 133.85784912 C-285.39125488 132.59972412 -285.30875488 131.34159912 -285.22375488 130.04534912 C-283.50765394 115.22658554 -274.83897213 103.12726953 -264.47375488 92.85784912 C-263.41221191 92.06894287 -263.41221191 92.06894287 -262.32922363 91.26409912 C-260.21007361 89.8177357 -260.21007361 89.8177357 -258.47375488 86.85784912 C-257.81375488 86.85784912 -257.15375488 86.85784912 -256.47375488 86.85784912 C-253.84430216 85.60294938 -251.25074426 84.31564062 -248.66125488 82.98284912 C-240.00723154 78.55010956 -240.00723154 78.55010956 -235.47375488 76.85784912 C-235.47375488 75.86784912 -235.47375488 74.87784912 -235.47375488 73.85784912 C-234.15375488 74.18784912 -232.83375488 74.51784912 -231.47375488 74.85784912 C-232.46375488 75.35284912 -232.46375488 75.35284912 -233.47375488 75.85784912 C-208.39375488 75.52784912 -183.31375488 75.19784912 -157.47375488 74.85784912 C-157.47375488 66.60784912 -157.47375488 58.35784912 -157.47375488 49.85784912 C-155.18905774 33.99189676 -149.1041022 22.70412808 -137.47375488 11.85784912 C-136.37031738 11.16691162 -135.26687988 10.47597412 -134.13000488 9.76409912 C-132.81516113 8.82050537 -132.81516113 8.82050537 -131.47375488 7.85784912 C-131.47375488 6.53784912 -131.47375488 5.21784912 -131.47375488 3.85784912 C-130.79312988 4.08472412 -130.11250488 4.31159912 -129.41125488 4.54534912 C-125.42854445 4.96904172 -123.06708823 3.52618246 -119.47375488 1.85784912 C-115.33823999 0.77860739 -111.25686239 0.68191824 -107.00793457 0.63665771 C-105.89896993 0.61945411 -105.89896993 0.61945411 -104.76760197 0.60190296 C-102.31031978 0.56523909 -99.85301051 0.5355557 -97.39562988 0.50628662 C-95.6511353 0.48252444 -93.90664376 0.45853796 -92.16215515 0.43434143 C-86.51611242 0.35855831 -80.86996407 0.29479186 -75.22375488 0.23284912 C-74.26816303 0.22209476 -73.31257118 0.21134041 -72.328022 0.20026016 C-48.21988557 -0.06957543 -24.10880373 -0.31159095 0 0 Z M-120.11901855 43.11175537 C-122.53599539 49.79253087 -122.99055539 55.78451149 -122.78625488 62.85784912 C-122.77658691 63.89296631 -122.76691895 64.9280835 -122.75695801 65.99456787 C-122.87731171 71.09183138 -122.87731171 71.09183138 -121.47375488 75.85784912 C-120.37794601 75.85784912 -119.28213715 75.85784912 -118.15312195 75.85784912 C-30.18327074 75.85784912 -30.18327074 75.85784912 -25.46740723 75.87371826 C-19.81588271 75.89164407 -14.16436183 75.90324454 -8.51281738 75.91278076 C-6.06652399 75.91783374 -3.62023364 75.9246749 -1.1739502 75.93328857 C2.34330997 75.94535343 5.86053062 75.95107555 9.37780762 75.95550537 C11.02929306 75.9632473 11.02929306 75.9632473 12.71414185 75.97114563 C14.23109146 75.97125893 14.23109146 75.97125893 15.77868652 75.97137451 C17.12079697 75.97470543 17.12079697 75.97470543 18.49002075 75.97810364 C20.52114794 76.08434279 20.52114794 76.08434279 21.52624512 74.85784912 C21.52624512 75.18784912 21.52624512 75.51784912 21.52624512 75.85784912 C25.81624512 75.85784912 30.10624512 75.85784912 34.52624512 75.85784912 C34.58004358 71.58684885 34.61982293 67.3165218 34.65124512 63.04534912 C34.67638184 61.22293701 34.67638184 61.22293701 34.70202637 59.3637085 C34.71169434 57.61864014 34.71169434 57.61864014 34.72155762 55.83831787 C34.73726807 54.22799683 34.73726807 54.22799683 34.7532959 52.58514404 C34.72940055 49.63851172 34.72940055 49.63851172 32.52624512 46.85784912 C31.53624512 46.36284912 31.53624512 46.36284912 30.52624512 45.85784912 C30.52624512 44.53784912 30.52624512 43.21784912 30.52624512 41.85784912 C25.40109348 36.84917821 22.06934317 35.744593 15.12579346 35.70394897 C14.0296019 35.69534851 12.93341034 35.68674805 11.80400085 35.67788696 C10.60600357 35.67362701 9.40800629 35.66936707 8.17370605 35.66497803 C6.27552879 35.65271179 6.27552879 35.65271179 4.33900452 35.64019775 C0.14623121 35.61404023 -4.04655176 35.59867698 -8.23937988 35.58441162 C-9.68545284 35.57904947 -11.13152573 35.57367196 -12.57759857 35.56827927 C-18.59459698 35.54666026 -24.61159276 35.52792499 -30.62862015 35.51665688 C-39.23812245 35.5004249 -47.84717302 35.46725474 -56.45650506 35.41025603 C-62.51780707 35.37150094 -68.57898852 35.35201768 -74.64041114 35.34673631 C-78.256983 35.34309058 -81.87307236 35.33115334 -85.48950958 35.29863358 C-89.5278237 35.2628391 -93.56517164 35.26693781 -97.6036377 35.27435303 C-98.79353806 35.25794769 -99.98343842 35.24154236 -101.20939636 35.22463989 C-109.05166285 35.28354505 -115.28400957 36.48810157 -120.11901855 43.11175537 Z M-287.47375488 166.85784912 C-286.47375488 168.85784912 -286.47375488 168.85784912 -286.47375488 168.85784912 Z M-287.47375488 209.85784912 C-286.47375488 211.85784912 -286.47375488 211.85784912 -286.47375488 211.85784912 Z M-287.47375488 217.85784912 C-286.47375488 221.85784912 -286.47375488 221.85784912 -286.47375488 221.85784912 Z M-287.47375488 241.85784912 C-286.47375488 245.85784912 -286.47375488 245.85784912 -286.47375488 245.85784912 Z M-287.47375488 246.85784912 C-286.47375488 248.85784912 -286.47375488 248.85784912 -286.47375488 248.85784912 Z M-287.47375488 329.85784912 C-286.47375488 333.85784912 -286.47375488 333.85784912 -286.47375488 333.85784912 Z M-287.47375488 353.85784912 C-286.47375488 357.85784912 -286.47375488 357.85784912 -286.47375488 357.85784912 Z " fill="#103249" transform="translate(318.4737548828125,24.14215087890625)"/>
<path d="M0 0 C1.40851782 0.49076427 2.81763397 0.97981411 4.22729492 1.46728516 C8.03431154 2.79103004 11.83041248 4.14373876 15.62463379 5.50366211 C18.14698964 6.40519814 20.67214773 7.29844929 23.19824219 8.18945312 C44.98974724 15.87615965 44.98974724 15.87615965 55.05438232 19.62796021 C56.96042887 20.33702852 58.87097193 21.03397517 60.78173828 21.73022461 C61.86310059 22.1453833 62.94446289 22.56054199 64.05859375 22.98828125 C64.98212646 23.33673096 65.90565918 23.68518066 66.85717773 24.04418945 C70.44921451 26.21181842 71.04646343 29.20500852 72.1015625 33.1015625 C78.96084309 56.46772972 97.35404622 79.07173607 112.10766602 97.92993164 C115.07856402 101.73395044 117.93111868 105.5834052 120.67578125 109.5546875 C121.28301025 110.42029297 121.89023926 111.28589844 122.51586914 112.17773438 C123.68093934 113.84578433 124.82849687 115.52625811 125.95483398 117.22070312 C129.8934082 122.80780374 133.33122431 125.09989867 140.0625 126.375 C142.7868931 126.86615564 142.7868931 126.86615564 145.1875 126.8125 C145.95320313 126.83183594 146.71890625 126.85117187 147.5078125 126.87109375 C155.18941619 125.37940618 159.04343393 120.46335888 163.375 114.4375 C164.51393748 112.89815225 165.65326394 111.35909222 166.79296875 109.8203125 C167.34774902 109.06266602 167.9025293 108.30501953 168.47412109 107.52441406 C170.65469492 104.57363448 172.9206722 101.69755356 175.1875 98.8125 C180.77924294 91.53421523 185.98599395 84.02000723 191.0625 76.375 C191.54477051 75.65070801 192.02704102 74.92641602 192.52392578 74.18017578 C202.21836807 59.51537278 210.21519028 44.0852998 218.0625 28.375 C222.72249876 30.00795819 227.38146508 31.64381924 232.03955078 33.28222656 C233.62000826 33.83768769 235.2007315 34.39239333 236.78173828 34.94628906 C239.07136434 35.74859952 241.3599789 36.55374147 243.6484375 37.359375 C244.34053314 37.60121521 245.03262878 37.84305542 245.74569702 38.09222412 C249.64312994 39.46758494 253.49346229 40.93076864 257.32852173 42.472229 C258.21823984 42.82944157 259.10795795 43.18665413 260.02463722 43.55469131 C260.69713194 43.82539318 261.36962666 44.09609505 262.0625 44.375 C262.15611175 63.22101249 262.22656152 82.06697752 262.26974869 100.91317463 C262.29033791 109.66460779 262.31838854 118.41589614 262.36425781 127.16723633 C262.40423744 134.79856362 262.42995925 142.42978599 262.43885398 150.0612151 C262.44404999 154.09873049 262.45618565 158.13594581 262.48542023 162.17336464 C262.5127657 165.98108869 262.52090686 169.78839183 262.51493073 173.59620476 C262.51602248 174.98646973 262.52386202 176.37675019 262.5393219 177.76692963 C262.65748457 188.94998477 261.02416343 198.68369024 253.84375 207.5859375 C248.78123642 212.67065509 242.91773272 216.46114614 235.640625 216.68359375 C229.2281484 216.59921906 223.7844954 214.62714569 217.8125 212.4375 C216.61044922 212.01090088 215.40839844 211.58430176 214.16992188 211.14477539 C205.78893466 208.15972025 197.4536487 205.04668982 189.109375 201.9609375 C187.5595694 201.38783089 187.5595694 201.38783089 185.97845459 200.80314636 C180.77873998 198.87859733 175.58185511 196.94691599 170.38964844 195.00219727 C169.4132843 194.63796661 168.43692017 194.27373596 167.43096924 193.89846802 C165.58666395 193.21032016 163.74345743 192.51921777 161.90155029 191.82467651 C149.72048245 187.28866815 139.87523907 187.48931419 127.625 191.875 C126.51189453 192.25648193 125.39878906 192.63796387 124.25195312 193.03100586 C117.40812974 195.40340436 110.61511178 197.90449704 103.83055115 200.44094849 C100.88463518 201.54177356 97.93650359 202.63649562 94.98803711 203.73046875 C91.0855633 205.1784973 87.19401625 206.65196645 83.30688477 208.140625 C81.47572587 208.82502915 79.64427615 209.50865587 77.8125 210.19140625 C76.9924498 210.51287125 76.1723996 210.83433624 75.32749939 211.1655426 C66.02202555 214.58322584 57.6395011 214.28121767 48.5234375 210.54296875 C47.34763123 210.08750923 47.34763123 210.08750923 46.14807129 209.62284851 C43.57078938 208.61987486 41.0045579 207.59132687 38.4375 206.5625 C36.61154535 205.84666781 34.7848672 205.13267877 32.95751953 204.42041016 C29.05388506 202.89586172 25.15448815 201.36109322 21.2578125 199.81884766 C11.57166002 195.98995449 1.8519343 192.24733684 -7.86199951 188.48965454 C-10.98808392 187.27882369 -14.11272828 186.06435991 -17.23681641 184.84838867 C-25.85185838 181.49572624 -34.46840288 178.14766369 -43.1171875 174.8828125 C-44.34937012 174.41762207 -45.58155273 173.95243164 -46.85107422 173.47314453 C-59.67020285 168.91212249 -70.62980357 172.0884266 -82.75 176.9375 C-84.25361378 177.52037668 -85.75811395 178.1009712 -87.26342773 178.67944336 C-90.4663786 179.91254401 -93.66498094 181.15613799 -96.86132812 182.40625 C-102.14488338 184.46493836 -107.45229665 186.45712962 -112.765625 188.4375 C-113.66347214 188.77224838 -114.56131927 189.10699677 -115.4863739 189.45188904 C-117.27871428 190.11980708 -119.07112791 190.78752859 -120.86361694 191.45504761 C-125.05819068 193.01816227 -129.25030342 194.58776307 -133.44140625 196.16015625 C-134.20193802 196.4438356 -134.96246979 196.72751495 -135.74604797 197.01979065 C-140.53444259 198.81443802 -145.25375452 200.72269453 -149.90991211 202.84155273 C-152.55679041 203.53793191 -154.33860011 203.15890359 -156.9375 202.375 C-158.265625 200.66796875 -158.265625 200.66796875 -159.1875 198.5625 C-159.50203125 197.87542969 -159.8165625 197.18835938 -160.140625 196.48046875 C-161.70623303 192.34388675 -162.0615628 188.78409966 -162.05775452 184.35125732 C-162.05912918 183.11729218 -162.06050385 181.88332703 -162.06192017 180.61196899 C-162.05838127 179.24749732 -162.05474647 177.88302588 -162.05102539 176.51855469 C-162.05074327 175.07955935 -162.05090174 173.64056386 -162.0514679 172.2015686 C-162.0517549 168.29695871 -162.04587371 164.39237951 -162.03889394 160.48777676 C-162.0326444 156.40650526 -162.03205533 152.32523306 -162.03086853 148.24395752 C-162.02775994 140.51631988 -162.01955291 132.78869637 -162.00951904 125.06106496 C-161.99834325 116.26307624 -161.99284375 107.46508685 -161.98782361 98.6670928 C-161.97736992 80.56972052 -161.9597796 62.47236139 -161.9375 44.375 C-156.07932366 42.19314145 -150.22095755 40.01179345 -144.36242676 37.83088684 C-142.3758856 37.0912961 -140.38939338 36.35157392 -138.4029541 35.61170959 C-127.09187158 31.39891936 -115.77687174 27.19861123 -104.4375 23.0625 C-94.96976629 19.60413641 -85.5177609 16.10596175 -76.07421875 12.58203125 C-74.93159576 12.15572922 -73.78897278 11.72942719 -72.61172485 11.29020691 C-66.85220858 9.14083042 -61.09355739 6.98916785 -55.3359375 4.8347168 C-53.19662821 4.03560804 -51.05730586 3.23653427 -48.91796875 2.4375 C-47.94413742 2.07231766 -46.97030609 1.70713531 -45.96696472 1.33088684 C-43.29467316 0.33362499 -40.61800879 -0.65006266 -37.9375 -1.625 C-37.12951462 -1.92256195 -36.32152924 -2.2201239 -35.48905945 -2.52670288 C-23.02695893 -6.93768495 -12.12182116 -4.37495079 0 0 Z " fill="#7EC9E5" transform="translate(224.9375,215.625)"/>
<path d="M0 0 C4.65999876 1.63295819 9.31896508 3.26881924 13.97705078 4.90722656 C15.55750826 5.46268769 17.1382315 6.01739333 18.71923828 6.57128906 C21.00886434 7.37359952 23.2974789 8.17874147 25.5859375 8.984375 C26.62408096 9.34713531 26.62408096 9.34713531 27.68319702 9.71722412 C31.58062994 11.09258494 35.43096229 12.55576864 39.26602173 14.097229 C40.15573984 14.45444157 41.04545795 14.81165413 41.96213722 15.17969131 C42.9708793 15.58574411 42.9708793 15.58574411 44 16 C44.09361175 34.84601249 44.16406152 53.69197752 44.20724869 72.53817463 C44.22783791 81.28960779 44.25588854 90.04089614 44.30175781 98.79223633 C44.34173744 106.42356362 44.36745925 114.05478599 44.37635398 121.6862151 C44.38154999 125.72373049 44.39368565 129.76094581 44.42292023 133.79836464 C44.4502657 137.60608869 44.45840686 141.41339183 44.45243073 145.22120476 C44.45352248 146.61146973 44.46136202 148.00175019 44.4768219 149.39192963 C44.59498457 160.57498477 42.96166343 170.30869024 35.78125 179.2109375 C30.71873642 184.29565509 24.85523272 188.08614614 17.578125 188.30859375 C11.1656484 188.22421906 5.7219954 186.25214569 -0.25 184.0625 C-1.45205078 183.63590088 -2.65410156 183.20930176 -3.89257812 182.76977539 C-12.27356534 179.78472025 -20.6088513 176.67168982 -28.953125 173.5859375 C-29.98632874 173.20386642 -31.01953247 172.82179535 -32.08404541 172.42814636 C-37.28376002 170.50359733 -42.48064489 168.57191599 -47.67285156 166.62719727 C-48.6492157 166.26296661 -49.62557983 165.89873596 -50.63153076 165.52346802 C-52.47583605 164.83532016 -54.31904257 164.14421777 -56.16094971 163.44967651 C-68.34201755 158.91366815 -78.18726093 159.11431419 -90.4375 163.5 C-91.55060547 163.88148193 -92.66371094 164.26296387 -93.81054688 164.65600586 C-100.65437026 167.02840436 -107.44738822 169.52949704 -114.23194885 172.06594849 C-117.17786482 173.16677356 -120.12599641 174.26149562 -123.07446289 175.35546875 C-126.9769367 176.8034973 -130.86848375 178.27696645 -134.75561523 179.765625 C-136.58677413 180.45002915 -138.41822385 181.13365587 -140.25 181.81640625 C-141.0700502 182.13787125 -141.8901004 182.45933624 -142.73500061 182.7905426 C-150.53314385 185.65461852 -158.75994916 186.43182732 -166.6328125 183.3203125 C-167.5403125 182.96839844 -168.4478125 182.61648438 -169.3828125 182.25390625 C-170.28773438 181.88136719 -171.19265625 181.50882813 -172.125 181.125 C-173.06859375 180.76019531 -174.0121875 180.39539063 -174.984375 180.01953125 C-181.85062191 177.29875618 -181.85062191 177.29875618 -183 175 C-181.35 175.33 -179.7 175.66 -178 176 C-177.91621094 174.74703125 -177.83242188 173.4940625 -177.74609375 172.203125 C-176.97148357 164.47608213 -175.24042456 156.92365861 -173.61645508 149.33984375 C-173.06112408 146.7435673 -172.51532946 144.14541575 -171.97070312 141.546875 C-171.61774753 139.88008964 -171.26425077 138.21341877 -170.91015625 136.546875 C-170.74862564 135.77800964 -170.58709503 135.00914429 -170.42066956 134.21697998 C-169.52092117 130.03890182 -168.44056521 126.03374234 -167 122 C-165.68 122.33 -164.36 122.66 -163 123 C-164.485 122.01 -164.485 122.01 -166 121 C-165.03644647 108.33029613 -165.03644647 108.33029613 -164 103 C-160.89656201 104.20689255 -157.98806107 105.50596946 -155 107 C-157.64 105.35 -160.28 103.7 -163 102 C-162.32657335 92.27492685 -160.2541718 82.89345974 -158.25 73.375 C-157.88478718 71.62840012 -157.51988031 69.88173624 -157.15527344 68.13500977 C-156.61080134 65.52683186 -156.06594067 62.91874352 -155.51885986 60.31111145 C-154.47384452 55.31969958 -153.46673269 50.32356852 -152.5 45.31640625 C-152.2844043 44.21828613 -152.06880859 43.12016602 -151.84667969 41.98876953 C-151.46201348 40.0216835 -151.0869248 38.05268844 -150.72363281 36.08154297 C-149.67885314 30.82922189 -148.39716375 27.181636 -145 23 C-142.8125 21.75 -142.8125 21.75 -141 21 C-140.67 20.34 -140.34 19.68 -140 19 C-139.33355469 20.11375 -138.66710937 21.2275 -137.98046875 22.375 C-131.67273182 32.84857272 -125.07419025 43.02932848 -118 53 C-117.50806152 53.69528809 -117.01612305 54.39057617 -116.50927734 55.10693359 C-109.97632145 64.31483342 -103.25938397 73.37930528 -96.4375 82.375 C-95.75856689 83.27307373 -95.07963379 84.17114746 -94.38012695 85.09643555 C-93.737771 85.93859619 -93.09541504 86.78075684 -92.43359375 87.6484375 C-91.86697021 88.39270996 -91.30034668 89.13698242 -90.71655273 89.90380859 C-86.20339725 95.41510897 -82.80840277 97.48978363 -75.5703125 98.2578125 C-69.74808739 98.52326349 -65.7128056 97.63340855 -61 94 C-58.65853614 91.51772281 -56.67731526 88.83063184 -54.6875 86.0625 C-53.54856252 84.52315225 -52.40923606 82.98409222 -51.26953125 81.4453125 C-50.71475098 80.68766602 -50.1599707 79.93001953 -49.58837891 79.14941406 C-47.40780508 76.19863448 -45.1418278 73.32255356 -42.875 70.4375 C-37.28325706 63.15921523 -32.07650605 55.64500723 -27 48 C-26.51772949 47.27570801 -26.03545898 46.55141602 -25.53857422 45.80517578 C-15.84413193 31.14037278 -7.84730972 15.7102998 0 0 Z " fill="#A5D6E5" transform="translate(443,244)"/>
<path d="M0 0 C1.51857318 -0.0046138 3.03714188 -0.01096993 4.55570132 -0.01890898 C8.71196274 -0.03555993 12.86785533 -0.02737533 17.02411783 -0.0149641 C21.51297044 -0.00589845 26.00176048 -0.0198909 30.49060059 -0.03088379 C39.27793757 -0.04865786 48.06513779 -0.04483385 56.85248011 -0.03323323 C63.99559346 -0.02419423 71.13866853 -0.02297693 78.28178596 -0.02732849 C79.80762541 -0.02824789 79.80762541 -0.02824789 81.3642899 -0.02918586 C83.43087479 -0.03046478 85.49745967 -0.03176164 87.56404454 -0.03307623 C106.93676431 -0.04447892 126.30940834 -0.03137349 145.68211568 -0.00987476 C162.2973568 0.00799323 178.91248612 0.00489396 195.52772522 -0.0135498 C214.83027488 -0.03496664 234.13275817 -0.04337748 253.43531805 -0.03110075 C255.49454311 -0.02982658 257.55376817 -0.0285691 259.61299324 -0.02732849 C260.62612381 -0.02671139 261.63925438 -0.02609429 262.68308587 -0.02545848 C269.8154017 -0.02200783 276.94767536 -0.02782787 284.07998466 -0.0372467 C292.77517196 -0.0484772 301.47021486 -0.04540463 310.16538566 -0.02412373 C314.60007639 -0.01362706 319.03452656 -0.0094678 323.46921539 -0.02272034 C327.53245955 -0.03467899 331.59524118 -0.02802486 335.65844364 -0.00681013 C337.12469084 -0.00235869 338.59097748 -0.00457745 340.05719911 -0.01431328 C353.44676573 -0.09636936 362.9880526 2.77895801 372.70179749 12.13293457 C379.57163812 19.55236246 382.17910592 28.00692532 382.12782288 37.93859863 C382.1279689 38.6804541 382.12811493 39.42230957 382.12826538 40.18664551 C382.12757018 42.63231354 382.11979615 45.07790488 382.11195374 47.52355957 C382.11008816 49.22178099 382.10866492 50.92000295 382.10766602 52.6182251 C382.10385181 57.08326712 382.09403087 61.54827651 382.08296204 66.01330566 C382.07272435 70.57140664 382.06816334 75.1295129 382.06312561 79.68762207 C382.05240763 88.62774056 382.03534436 97.56783485 382.01429749 106.50793457 C376.35235994 105.36025342 371.00041253 103.9270077 365.57289124 101.90637207 C364.91974442 101.66504547 364.2665976 101.42371887 363.59365845 101.17507935 C361.54430076 100.4164747 359.49804465 99.64988435 357.45179749 98.88293457 C356.04769949 98.36156531 354.643404 97.84072763 353.23890686 97.32043457 C349.82840506 96.05572127 346.42063165 94.78383683 343.01429749 93.50793457 C342.94601746 91.76685425 342.94601746 91.76685425 342.87635803 89.99060059 C341.80818558 64.04932304 333.80641583 44.28545219 314.96351624 26.04699707 C298.53387015 11.90226865 278.34121226 6.30641825 257.01429749 7.50793457 C235.33801174 9.27742728 216.24739139 20.41957829 202.14320374 36.71887207 C191.08590497 51.20494788 186.36310487 66.57080954 185.01429749 84.50793457 C176.98350817 82.46306228 169.23424094 79.90786024 161.45179749 77.07043457 C159.63714576 76.41621952 157.82248509 75.76202885 156.00750732 75.10871887 C154.72520329 74.64701966 153.44307094 74.1848434 152.16110229 73.72221375 C144.73342404 71.04203195 137.2956385 68.39052614 129.85270691 65.75302124 C128.34282912 65.21725424 126.83344382 64.68009717 125.3245697 64.14151001 C123.20273769 63.38414363 121.07941618 62.63110289 118.95570374 61.87902832 C117.73568665 61.44517822 116.51566956 61.01132813 115.25868225 60.56433105 C100.22626232 55.6696602 87.14088366 58.76304668 72.92201233 64.37463379 C68.72428619 66.01072487 64.48789452 67.53507594 60.25257874 69.07067871 C56.46737568 70.44537239 52.68721037 71.83338673 48.90882874 73.22668457 C48.22172821 73.48003067 47.53462769 73.73337677 46.82670593 73.99440002 C44.55580858 74.83198885 42.28504758 75.6699466 40.01429749 76.50793457 C39.1630127 76.82198242 38.31172791 77.13603027 37.43464661 77.45959473 C10.36623707 87.44544244 10.36623707 87.44544244 -16.68101501 97.48840332 C-17.92148338 97.95026031 -17.92148338 97.95026031 -19.18701172 98.42144775 C-23.0558565 99.86202533 -26.92407399 101.30424098 -30.79112244 102.74963379 C-32.14372064 103.25376247 -33.49633974 103.75783509 -34.84898376 104.26184082 C-36.60142395 104.91648315 -36.60142395 104.91648315 -38.38926697 105.58435059 C-40.98570251 106.50793457 -40.98570251 106.50793457 -41.98570251 106.50793457 C-42.07868748 96.51078516 -42.14961147 86.51373989 -42.1929512 76.51624489 C-42.21375997 71.87318184 -42.24195384 67.23041629 -42.28746033 62.58752441 C-42.33115898 58.10062135 -42.35489 53.6140031 -42.36521149 49.12690353 C-42.37256 47.42139584 -42.38690926 45.71590242 -42.40862274 44.01051712 C-42.56802867 30.962999 -41.23550541 20.41996354 -31.98570251 10.50793457 C-29.46733302 8.20785926 -26.92603928 6.23698559 -23.98570251 4.50793457 C-23.43194976 4.17925526 -22.878197 3.85057595 -22.30766386 3.51193666 C-15.07511777 -0.25664014 -7.98795853 -0.0529528 0 0 Z " fill="#81CBE6" transform="translate(104.98570251464844,130.4920654296875)"/>
<path d="M0 0 C0 0.33 0 0.66 0 1 C-1.65 1 -3.3 1 -5 1 C-5.10014404 1.66539795 -5.20028809 2.3307959 -5.3034668 3.01635742 C-6.75511966 12.20809651 -8.76077059 21.24127115 -10.8125 30.3125 C-11.34984581 32.70527219 -11.88600549 35.09830817 -12.42208862 37.49136353 C-12.77729487 39.07671129 -13.13286244 40.66197814 -13.48880005 42.24716187 C-15.02112255 49.07531004 -16.51925327 55.91046569 -18 62.75 C-18.20729736 63.70688721 -18.41459473 64.66377441 -18.62817383 65.6496582 C-19.08620446 67.76627551 -19.5432431 69.88310746 -20 72 C-20.75796875 72.02835937 -21.5159375 72.05671875 -22.296875 72.0859375 C-34.94552833 73.14476142 -46.32140524 77.76717233 -58.11425781 82.18164062 C-63.96779596 84.36754297 -69.83970097 86.50281713 -75.7109375 88.640625 C-78.00953353 89.4779129 -80.30811738 90.31523423 -82.60668945 91.15258789 C-83.75851715 91.57218781 -84.91034485 91.99178772 -86.09707642 92.42410278 C-91.65096839 94.44889758 -97.20257076 96.4799277 -102.75390625 98.51171875 C-103.79844467 98.89335678 -104.84298309 99.27499481 -105.91917419 99.66819763 C-110.85649653 101.47388679 -115.78882431 103.29107518 -120.71044922 105.13916016 C-121.59119614 105.46850052 -122.47194305 105.79784088 -123.37937927 106.13716125 C-125.01316087 106.74902528 -126.64548023 107.36481398 -128.27601624 107.98527527 C-131.31911012 109.12288986 -133.72267091 110 -137 110 C-137 117.26 -137 124.52 -137 132 C-134.15632813 130.84886719 -131.31265625 129.69773437 -128.3828125 128.51171875 C-118.24714723 124.44024228 -108.02652057 120.62517194 -97.76956177 116.87185669 C-80.91328616 110.70276798 -64.10161587 104.43129008 -47.36865234 97.93481445 C-46.71290726 97.68145325 -46.05716217 97.42809204 -45.38154602 97.16705322 C-43.6486814 96.49735716 -41.91717281 95.82415515 -40.18579102 95.15063477 C-35.11230385 93.31820738 -30.43961789 91.67032619 -25 92 C-26.81282599 101.49348345 -28.75365437 110.95654197 -30.8359375 120.39453125 C-30.99840469 121.13457901 -31.16087189 121.87462677 -31.32826233 122.63710022 C-32.18506533 126.51993794 -33.06811123 130.39421829 -33.99487305 134.26098633 C-35.7079517 141.49625872 -37.16284943 148.43429319 -37.62109375 155.8671875 C-38.18473516 162.83144682 -38.73574973 169.24749744 -43 175 C-51.07462516 180.72422825 -60.85061323 183.14938589 -70.28231812 185.76147461 C-79.37980665 188.29723444 -88.12791454 191.65746327 -96.9331665 195.05285645 C-99.50784301 196.04151214 -102.087994 197.0138651 -104.67138672 197.97949219 C-105.48122009 198.28223053 -106.29105347 198.58496887 -107.12542725 198.8968811 C-108.68633741 199.47982411 -110.24740805 200.06233764 -111.80865479 200.64437866 C-116.59673341 202.43989154 -121.31623167 204.34768413 -125.97241211 206.46655273 C-128.61929041 207.16293191 -130.40110011 206.78390359 -133 206 C-134.328125 204.29296875 -134.328125 204.29296875 -135.25 202.1875 C-135.56453125 201.50042969 -135.8790625 200.81335938 -136.203125 200.10546875 C-137.76873303 195.96888675 -138.1240628 192.40909966 -138.12025452 187.97625732 C-138.12162918 186.74229218 -138.12300385 185.50832703 -138.12442017 184.23696899 C-138.12088127 182.87249732 -138.11724647 181.50802588 -138.11352539 180.14355469 C-138.11324327 178.70455935 -138.11340174 177.26556386 -138.1139679 175.8265686 C-138.1142549 171.92195871 -138.10837371 168.01737951 -138.10139394 164.11277676 C-138.0951444 160.03150526 -138.09455533 155.95023306 -138.09336853 151.86895752 C-138.09025994 144.14131988 -138.08205291 136.41369637 -138.07201904 128.68606496 C-138.06084325 119.88807624 -138.05534375 111.09008685 -138.05032361 102.2920928 C-138.03986992 84.19472052 -138.0222796 66.09736139 -138 48 C-132.14182366 45.81814145 -126.28345755 43.63679345 -120.42492676 41.45588684 C-118.4383856 40.7162961 -116.45189338 39.97657392 -114.4654541 39.23670959 C-103.15437062 35.023919 -91.83932943 30.82372885 -80.5 26.6875 C-64.01427791 20.66477065 -47.57540502 14.51638069 -31.13476562 8.37182617 C-28.98567795 7.56949638 -26.83658944 6.76716881 -24.6875 5.96484375 C-23.69818481 5.59450012 -22.70886963 5.22415649 -21.6895752 4.84259033 C-7.97589164 -0.27503075 -7.97589164 -0.27503075 0 0 Z " fill="#D8EDF0" transform="translate(201,212)"/>
<path d="M0 0 C11.84624242 9.36679633 20.28817032 21.08308158 23.51953125 35.9921875 C23.92654791 39.56766718 23.99885188 43.08343293 23.95703125 46.6796875 C23.94583252 47.64592041 23.93463379 48.61215332 23.9230957 49.60766602 C23.13104942 80.38468757 2.06717155 108.19255997 -15.84814453 131.83544922 C-17.38076801 133.86045607 -18.89906111 135.89538899 -20.4140625 137.93359375 C-21.28956208 139.09956135 -22.1658094 140.26496804 -23.04296875 141.4296875 C-23.78675781 142.41839844 -24.53054688 143.40710938 -25.296875 144.42578125 C-27.55003252 147.07394671 -29.52961286 149.14165076 -32.48046875 150.9921875 C-35.4456759 150.77619669 -37.0273867 150.3841215 -39.29125977 148.42578125 C-39.82936279 147.76707031 -40.36746582 147.10835937 -40.921875 146.4296875 C-41.51887207 145.70394531 -42.11586914 144.97820312 -42.73095703 144.23046875 C-45.36275451 140.86341331 -47.93367254 137.4698015 -50.41796875 133.9921875 C-50.96517578 133.22656494 -51.51238281 132.46094238 -52.07617188 131.67211914 C-53.88808847 129.11935591 -55.68619673 126.55738069 -57.48046875 123.9921875 C-58.12258301 123.07808105 -58.76469727 122.16397461 -59.42626953 121.22216797 C-76.08029754 97.36375496 -94.00190056 71.35590865 -91.48046875 40.9921875 C-91.41988281 40.06535156 -91.35929687 39.13851562 -91.296875 38.18359375 C-89.63699377 24.3922349 -81.10014598 10.73310126 -70.48046875 1.9921875 C-49.56548068 -13.45272677 -21.58553523 -15.08074875 0 0 Z " fill="#F67831" transform="translate(402.48046875,168.0078125)"/>
<path d="M0 0 C10.67949479 -0.68435904 18.89290732 0.99975277 28.9375 4.625 C30.34601782 5.11576427 31.75513397 5.60481411 33.16479492 6.09228516 C36.97181154 7.41603004 40.76791248 8.76873876 44.56213379 10.12866211 C47.08448964 11.03019814 49.60964773 11.92344929 52.13574219 12.81445312 C73.90246727 20.49241879 73.90246727 20.49241879 83.9927063 24.2543335 C85.89557976 24.96121012 87.80397652 25.65316596 89.71264648 26.34423828 C90.79231689 26.75657715 91.8719873 27.16891602 92.984375 27.59375 C93.90573242 27.93857422 94.82708984 28.28339844 95.77636719 28.63867188 C99.41755283 30.86783867 100.14436191 34.02009489 101.19921875 37.99609375 C102.06993689 41.26234861 103.3174632 44.12905367 104.75 47.1875 C105.17796875 48.10917969 105.6059375 49.03085937 106.046875 49.98046875 C106.51867187 50.98013672 106.51867187 50.98013672 107 52 C106.236875 52.721875 105.47375 53.44375 104.6875 54.1875 C99.59488262 59.5169833 98.26207437 64.32411666 96.94921875 71.3828125 C96.67993561 72.76275642 96.67993561 72.76275642 96.4052124 74.170578 C96.02226662 76.13730234 95.64357509 78.104859 95.26876831 80.07315063 C94.29731464 85.17360119 93.29558663 90.2681108 92.296875 95.36328125 C92.10093246 96.36717392 91.90498993 97.37106659 91.70310974 98.40538025 C89.36771398 110.32242194 86.73560976 122.16861057 84 134 C75.9722731 128.76857855 68.78596788 122.57919862 61.58544922 116.28417969 C53.92042293 109.58344407 46.11147122 103.15305487 38 97 C37.43458496 96.56558594 36.86916992 96.13117188 36.28662109 95.68359375 C20.7267596 83.79296678 4.37077885 76.42431421 -15 73 C-14.31117258 64.19498857 -12.26825283 55.7139029 -10.3125 47.125 C-9.95262358 45.52770078 -9.59325355 43.93028739 -9.234375 42.33276367 C-8.50957786 39.1088616 -7.78244748 35.88550104 -7.05322266 32.66259766 C-5.52009869 25.88265054 -4.00943394 19.09775609 -2.5 12.3125 C-2.24516846 11.17377441 -1.99033691 10.03504883 -1.7277832 8.86181641 C-1.49792725 7.8310498 -1.26807129 6.8002832 -1.03125 5.73828125 C-0.83080078 4.84149658 -0.63035156 3.94471191 -0.42382812 3.02075195 C0.03421191 1.18100249 0.03421191 1.18100249 0 0 Z " fill="#7EC9E5" transform="translate(196,211)"/>
<path d="M0 0 C14.61465404 9.35979846 27.7307874 20.77446437 40.78857422 32.14550781 C51.27333055 41.26022239 62.2050754 49.54804524 74.13671875 56.70703125 C73.14671875 57.20203125 73.14671875 57.20203125 72.13671875 57.70703125 C67.99568062 55.60209913 64.11147058 53.1172531 60.13671875 50.70703125 C59.80671875 56.64703125 59.47671875 62.58703125 59.13671875 68.70703125 C60.78671875 69.69703125 62.43671875 70.68703125 64.13671875 71.70703125 C63.14671875 72.20203125 63.14671875 72.20203125 62.13671875 72.70703125 C46.64009419 65.73875041 33.76558629 52.75729035 21.13671875 41.70703125 C12.49254313 34.1483455 3.64297032 27.15810758 -5.86328125 20.70703125 C-6.72566406 20.11921875 -7.58804688 19.53140625 -8.4765625 18.92578125 C-20.00583962 11.52892916 -34.10345375 6.94713599 -47.86328125 8.70703125 C-50.69785366 9.4014199 -53.42786993 10.32925149 -56.1796875 11.296875 C-56.96015442 11.56447632 -57.74062134 11.83207764 -58.54473877 12.10778809 C-66.3404356 14.81120227 -74.03768737 17.76585226 -81.72085571 20.77157593 C-85.91912701 22.41312973 -90.12324012 24.03953687 -94.328125 25.6640625 C-95.62208443 26.16399467 -95.62208443 26.16399467 -96.94218445 26.67402649 C-108.06437092 30.95762321 -119.25656537 35.0516257 -130.45214844 39.13867188 C-131.94991882 39.68606379 -133.44764188 40.23358521 -134.9453125 40.78125 C-135.64808319 41.03784393 -136.35085388 41.29443787 -137.07492065 41.55880737 C-141.78838977 43.28819752 -146.45365593 45.11286037 -151.0847168 47.05395508 C-152.86328125 47.70703125 -152.86328125 47.70703125 -154.86328125 47.70703125 C-154.86328125 40.44703125 -154.86328125 33.18703125 -154.86328125 25.70703125 C-152.8678125 24.98902344 -150.87234375 24.27101563 -148.81640625 23.53125 C-145.91515196 22.48626672 -143.01420444 21.4404333 -140.11328125 20.39453125 C-139.33873596 20.11535858 -138.56419067 19.83618591 -137.76617432 19.54855347 C-127.00914516 15.66963233 -116.26346149 11.76065848 -105.52734375 7.82421875 C-104.38753052 7.40656754 -103.24771729 6.98891632 -102.07336426 6.55860901 C-96.41912632 4.48657998 -90.7659069 2.4118435 -85.11425781 0.33276367 C-79.03872003 -1.89857466 -72.9553469 -4.10716457 -66.86328125 -6.29296875 C-65.97803772 -6.61153839 -65.09279419 -6.93010803 -64.1807251 -7.2583313 C-61.74620314 -8.12762094 -59.30639972 -8.97943668 -56.86328125 -9.82421875 C-56.17458954 -10.07094833 -55.48589783 -10.31767792 -54.77633667 -10.57188416 C-36.33750375 -16.82166999 -15.93882416 -9.75871303 0 0 Z " fill="#64B4D3" transform="translate(218.86328125,296.29296875)"/>
<path d="M0 0 C3.13236303 2.71145175 4.96072713 6.14510325 7 9.6875 C11.93963546 18.07692628 17.3738062 26.05910357 23 34 C23.49483887 34.69963867 23.98967773 35.39927734 24.49951172 36.12011719 C31.02957127 45.32355682 37.74383075 54.38354437 44.5625 63.375 C45.24143311 64.27307373 45.92036621 65.17114746 46.61987305 66.09643555 C47.262229 66.93859619 47.90458496 67.78075684 48.56640625 68.6484375 C49.13302979 69.39270996 49.69965332 70.13698242 50.28344727 70.90380859 C53.26403898 74.54359816 55.7355297 77.24517657 60.25 78.75 C61.4875 79.1625 62.725 79.575 64 80 C60.19298445 88.83227607 55.24681808 93.58349608 46.296875 97.1875 C28.60254251 103.44671966 10.41292961 99.63322087 -6.1328125 91.91796875 C-11.60752821 89.26269059 -16.83628129 86.21754442 -22 83 C-21.32657335 73.27492685 -19.2541718 63.89345974 -17.25 54.375 C-16.88478718 52.62840012 -16.51988031 50.88173624 -16.15527344 49.13500977 C-15.61080134 46.52683186 -15.06594067 43.91874352 -14.51885986 41.31111145 C-13.47384452 36.31969958 -12.46673269 31.32356852 -11.5 26.31640625 C-11.2844043 25.21828613 -11.06880859 24.12016602 -10.84667969 22.98876953 C-10.46201348 21.0216835 -10.0869248 19.05268844 -9.72363281 17.08154297 C-8.6784578 11.82723446 -7.39550114 8.18468988 -4 4 C-1.75 2.625 -1.75 2.625 0 2 C0 1.34 0 0.68 0 0 Z " fill="#D8ECF0" transform="translate(302,263)"/>
<path d="M0 0 C0.50748779 0.25168945 1.01497559 0.50337891 1.5378418 0.76269531 C26.81736976 13.22399205 51.90374604 20.04997348 79.5078125 10.828125 C85.36010819 8.66850791 90.63742001 6.16117044 96 3 C95.88930176 3.57854736 95.77860352 4.15709473 95.66455078 4.75317383 C92.7677226 19.86456836 92.7677226 19.86456836 90 35 C92.64 35 95.28 35 98 35 C97.505 35.99 97.505 35.99 97 37 C95.28020618 37.28905073 93.54487161 37.48540276 91.80859375 37.6484375 C81.44132702 39.10383953 71.84870475 43.03696879 62.0625 46.625 C60.14036471 47.32009191 58.21784014 48.01410831 56.29492188 48.70703125 C54.37491884 49.40081711 52.4549969 50.09482741 50.53515625 50.7890625 C49.11186508 51.30318695 49.11186508 51.30318695 47.65982056 51.82769775 C42.76629565 53.60341597 37.89403426 55.42002398 33.04248047 57.30761719 C32.06983749 57.6791391 31.09719452 58.05066101 30.09507751 58.43344116 C28.26289286 59.13441903 26.43594784 59.84933455 24.61598206 60.58145142 C16.66789257 63.59472104 8.44327639 64.51214617 0.3671875 61.3203125 C-0.5403125 60.96839844 -1.4478125 60.61648438 -2.3828125 60.25390625 C-3.28773438 59.88136719 -4.19265625 59.50882812 -5.125 59.125 C-6.06859375 58.76019531 -7.0121875 58.39539063 -7.984375 58.01953125 C-14.85062191 55.29875618 -14.85062191 55.29875618 -16 53 C-14.35 53.33 -12.7 53.66 -11 54 C-10.91621094 52.74703125 -10.83242188 51.4940625 -10.74609375 50.203125 C-9.97148357 42.47608213 -8.24042456 34.92365861 -6.61645508 27.33984375 C-6.06112408 24.7435673 -5.51532946 22.14541575 -4.97070312 19.546875 C-4.61774753 17.88008964 -4.26425077 16.21341877 -3.91015625 14.546875 C-3.74862564 13.77800964 -3.58709503 13.00914429 -3.42066956 12.21697998 C-2.52092117 8.03890182 -1.44056521 4.03374234 0 0 Z " fill="#D7ECF0" transform="translate(276,366)"/>
<path d="M0 0 C31.62011646 0 57.25529139 24.93499511 79.65185547 44.43847656 C90.1366118 53.55319114 101.06835665 61.84101399 113 69 C112.01 69.495 112.01 69.495 111 70 C106.85896187 67.89506788 102.97475183 65.41022185 99 63 C98.67 68.94 98.34 74.88 98 81 C99.65 81.99 101.3 82.98 103 84 C102.01 84.495 102.01 84.495 101 85 C85.50337544 78.03171916 72.62886754 65.0502591 60 54 C51.35582438 46.44131425 42.50625157 39.45107633 33 33 C32.13761719 32.4121875 31.27523437 31.824375 30.38671875 31.21875 C19.80431885 24.42938705 8.36575537 21.5113701 -4 20 C-2.68 13.4 -1.36 6.8 0 0 Z " fill="#3386AB" transform="translate(180,284)"/>
<path d="M0 0 C7.67745308 3.97109642 13.26228207 9.25081527 16.25 17.4375 C18.51774429 25.46654059 16.66306945 32.04065113 13.25 39.4375 C9.55123278 45.71619026 3.39963681 49.2563862 -3.25 51.75 C-11.60832474 53.39181379 -18.16213354 52.35844992 -25.75 48.4375 C-31.65146604 44.0729767 -35.9335151 38.60189698 -37.75 31.4375 C-38.95440872 22.9607567 -37.49508482 16.54201927 -32.75 9.4375 C-24.68401928 -0.37247655 -12.16192477 -4.95799721 0 0 Z " fill="#0F304A" transform="translate(379.75,190.5625)"/>
<path d="M0 0 C0.33 0 0.66 0 1 0 C1.71619057 11.22031894 0.30635246 20.58890541 -7.125 29.375 C-19.19931642 41.60587157 -36.32557976 46.16208144 -53.1875 46.3125 C-70.56334113 46.3125 -85.55197707 41.6866974 -101 34 C-101 33.34 -101 32.68 -101 32 C-103.46326712 30.3553326 -103.46326712 30.3553326 -106 29 C-105.03644647 16.33029613 -105.03644647 16.33029613 -104 11 C-100.32859735 12.33505551 -97.141034 14.03685375 -93.84375 16.09765625 C-91.98937657 17.10496669 -91.98937657 17.10496669 -89.7265625 17.4375 C-86.24258576 18.15625738 -83.12974005 19.54700457 -79.875 20.9375 C-65.19215915 26.95091373 -49.18092835 28.44509625 -34 23 C-26.98052829 19.98707607 -21.92740272 16.33665612 -18.75 9.1875 C-17 7 -17 7 -15.0625 6.609375 C-13.49582657 6.49293306 -11.92795093 6.39183061 -10.359375 6.3046875 C-6.54805665 5.81249738 -4.14554869 4.16256473 -1 2 C-0.67 1.34 -0.34 0.68 0 0 Z " fill="#62B1D1" transform="translate(383,336)"/>
<path d="M0 0 C7.82490023 -0.62599202 14.60937233 1.67485871 22 4 C21.34395763 10.53726929 19.92343334 16.70041038 18.3125 23.0625 C15.52228625 34.34596433 13.22641342 45.68050154 11.09301758 57.10180664 C6.98123845 79.03752309 6.98123845 79.03752309 5 83 C-2.71589817 83.1567564 -10.31516461 82.67453101 -18 82 C-16.97645827 73.76583593 -15.30134679 65.83865278 -13.31640625 57.79589844 C-10.30107682 45.39427923 -7.7455017 32.88698694 -5.12280273 20.39770508 C-4.74466573 18.61018101 -4.36649336 16.82266443 -3.98828125 15.03515625 C-3.81759125 14.2140033 -3.64690125 13.39285034 -3.47103882 12.54681396 C-2.56023864 8.25362473 -1.48867512 4.13981999 0 0 Z " fill="#69B7D7" transform="translate(176,304)"/>
<path d="M0 0 C2.24973447 -0.054138 4.49984383 -0.09285491 6.75 -0.125 C8.00296875 -0.14820313 9.2559375 -0.17140625 10.546875 -0.1953125 C13.86146459 -0.00783571 15.23951725 0.34371035 18 2 C19.74363045 2.72387082 21.49394279 3.43181952 23.25 4.125 C24.14203125 4.47820312 25.0340625 4.83140625 25.953125 5.1953125 C26.62859375 5.46085938 27.3040625 5.72640625 28 6 C28 6.33 28 6.66 28 7 C26.35 7 24.7 7 23 7 C22.96261719 7.58265625 22.92523438 8.1653125 22.88671875 8.765625 C22.50617045 13.51128617 21.83126211 17.98177673 20.60546875 22.5859375 C19.01025916 28.80797239 17.78678272 35.05989144 16.625 41.375 C14.38221581 53.32322256 11.79489799 65.16976296 9 77 C0.9401203 75.90831601 -7.04434891 74.69539933 -15 73 C-14.31117258 64.19498857 -12.26825283 55.7139029 -10.3125 47.125 C-9.95262358 45.52770078 -9.59325355 43.93028739 -9.234375 42.33276367 C-8.50957786 39.1088616 -7.78244748 35.88550104 -7.05322266 32.66259766 C-5.52009869 25.88265054 -4.00943394 19.09775609 -2.5 12.3125 C-2.24516846 11.17377441 -1.99033691 10.03504883 -1.7277832 8.86181641 C-1.49792725 7.8310498 -1.26807129 6.8002832 -1.03125 5.73828125 C-0.83080078 4.84149658 -0.63035156 3.94471191 -0.42382812 3.02075195 C0.03421191 1.18100249 0.03421191 1.18100249 0 0 Z " fill="#6AB8D8" transform="translate(196,211)"/>
<path d="M0 0 C127.05 0 254.1 0 385 0 C380.9566353 2.02168235 378.67870655 2.35927761 374.25 2.625 C373.07953125 2.69976562 371.9090625 2.77453125 370.703125 2.8515625 C369.36507812 2.92503906 369.36507812 2.92503906 368 3 C368 3.33 368 3.66 368 4 C361.375 4.125 361.375 4.125 358 3 C355.6670386 2.95833998 353.3329614 2.95833998 351 3 C350.01 3 349.02 3 348 3 C346.515 3.2475 346.515 3.2475 345 3.5 C342.26778651 3.95536892 339.75807682 4 337 4 C336.67 3.67 336.34 3.34 336 3 C336 3.33 336 3.66 336 4 C334 4 332 4 330 4 C329.67 3.34 329.34 2.68 329 2 C328.67 2.66 328.34 3.32 328 4 C327.01 4 326.02 4 325 4 C324.67 3.67 324.34 3.34 324 3 C322.515 3.495 322.515 3.495 321 4 C320.67 3.67 320.34 3.34 320 3 C318.515 3.495 318.515 3.495 317 4 C316.67 3.67 316.34 3.34 316 3 C314.4243784 2.9007276 312.84436956 2.86920047 311.265625 2.8671875 C310.29882812 2.86589844 309.33203125 2.86460937 308.3359375 2.86328125 C307.31757813 2.86714844 306.29921875 2.87101562 305.25 2.875 C304.24710937 2.87113281 303.24421875 2.86726563 302.2109375 2.86328125 C301.23898437 2.86457031 300.26703125 2.86585938 299.265625 2.8671875 C297.93192871 2.86887939 297.93192871 2.86887939 296.57128906 2.87060547 C293.95002257 2.93695952 293.95002257 2.93695952 291.23339844 3.57080078 C290.49637695 3.71243652 289.75935547 3.85407227 289 4 C288.67 3.67 288.34 3.34 288 3 C288 3.33 288 3.66 288 4 C283 4 278 4 273 4 C273 3.34 273 2.68 273 2 C272.21625 2.185625 271.4325 2.37125 270.625 2.5625 C268 3 268 3 266 2 C265.67 2.66 265.34 3.32 265 4 C254.33333333 4 243.66666667 4 233 4 C233 3.34 233 2.68 233 2 C232.18015625 2.165 231.3603125 2.33 230.515625 2.5 C226.54160933 3.06519334 222.75314249 3.07331763 218.75 3 C213.72710487 2.69570083 213.72710487 2.69570083 209 4 C209 3.34 209 2.68 209 2 C208.34 2 207.68 2 207 2 C206.67 2.66 206.34 3.32 206 4 C205.2575 3.835 204.515 3.67 203.75 3.5 C199.42485535 2.92331405 195.25844781 2.97279902 190.90234375 3.0625 C188.1363231 3.00293563 185.68725611 2.63113538 183 2 C183 2.66 183 3.32 183 4 C181.00045254 4.04254356 178.99958364 4.04080783 177 4 C176.67 3.67 176.34 3.34 176 3 C175.01 3.33 174.02 3.66 173 4 C173 3.34 173 2.68 173 2 C171.68 2 170.36 2 169 2 C169 2.66 169 3.32 169 4 C166.36 4 163.72 4 161 4 C161 3.34 161 2.68 161 2 C159.700625 2.144375 158.40125 2.28875 157.0625 2.4375 C156.33160156 2.51871094 155.60070312 2.59992188 154.84765625 2.68359375 C152.98859771 2.81886614 152.98859771 2.81886614 152 4 C149.6670386 4.04166002 147.3329614 4.04166002 145 4 C144.67 4 144.34 4 144 4 C142.5 3.83333333 141 3.66666667 139.5 3.5 C135.29864871 3.06724279 131.2027821 2.97141444 126.984375 3.03125 C124.57089468 2.99324244 122.33432895 2.60240747 120 2 C120 2.66 120 3.32 120 4 C116.14186658 4.07419487 112.70374632 4.11112389 109 3 C107.33480481 2.65939189 105.66842534 2.32441604 104 2 C104 2.66 104 3.32 104 4 C100.43001875 4.08113594 97.44172871 3.86043218 94 3 C92.00036972 2.96154557 89.99948367 2.95455719 88 3 C88 3.33 88 3.66 88 4 C85.66705225 4.04241723 83.33297433 4.04092937 81 4 C80.505 3.505 80.505 3.505 80 3 C79.34 3.33 78.68 3.66 78 4 C77.01 3.505 77.01 3.505 76 3 C74.68 3 73.36 3 72 3 C68 3 68 3 66 2 C65.67 2.66 65.34 3.32 65 4 C65 3.34 65 2.68 65 2 C61.87709365 2.48578543 59.00419641 2.9986012 56 4 C53.6670134 4.04022391 51.33293334 4.04320247 49 4 C48.67 4 48.34 4 48 4 C47.01 4 46.02 4 45 4 C45 3.34 45 2.68 45 2 C40.97007218 2.55312735 36.97977076 3.1558062 33 4 C33 3.34 33 2.68 33 2 C32.17798096 2.00523682 31.35596191 2.01047363 30.5090332 2.01586914 C26.77686327 2.03668393 23.04470558 2.04967455 19.3125 2.0625 C18.01892578 2.07087891 16.72535156 2.07925781 15.39257812 2.08789062 C13.52182617 2.09272461 13.52182617 2.09272461 11.61328125 2.09765625 C9.89298706 2.10551147 9.89298706 2.10551147 8.13793945 2.11352539 C5.29736223 2.01075807 2.75956208 1.65316416 0 1 C0 0.67 0 0.34 0 0 Z " fill="#687983" transform="translate(82,462)"/>
<path d="M0 0 C0.33 0 0.66 0 1 0 C0.67 84.15 0.34 168.3 0 255 C-0.99 254.67 -1.98 254.34 -3 254 C-3 253.01 -3 252.02 -3 251 C-2.34 251 -1.68 251 -1 251 C-1.33 245.06 -1.66 239.12 -2 233 C-2.33 233 -2.66 233 -3 233 C-3.02705308 230.58325776 -3.04686438 228.1668206 -3.0625 225.75 C-3.07087891 225.06808594 -3.07925781 224.38617188 -3.08789062 223.68359375 C-3.1044135 220.27988157 -2.95046957 217.26723916 -2 214 C-1.96154557 212.00036972 -1.95455719 209.99948367 -2 208 C-2.33 208 -2.66 208 -3 208 C-3 203.38 -3 198.76 -3 194 C-2.67 194 -2.34 194 -2 194 C-1.97316013 191.02077407 -1.95323963 188.04178705 -1.9375 185.0625 C-1.92912109 184.21236328 -1.92074219 183.36222656 -1.91210938 182.48632812 C-1.90727539 181.27299805 -1.90727539 181.27299805 -1.90234375 180.03515625 C-1.89448853 178.91185913 -1.89448853 178.91185913 -1.88647461 177.76586914 C-1.80658248 175.97332261 -1.80658248 175.97332261 -3 175 C-3.04080783 173.00041636 -3.04254356 170.99954746 -3 169 C-2.67 169 -2.34 169 -2 169 C-1.979375 167.741875 -1.95875 166.48375 -1.9375 165.1875 C-1.92589844 164.47980469 -1.91429687 163.77210938 -1.90234375 163.04296875 C-1.91736783 160.79694539 -1.91736783 160.79694539 -3 158 C-3 154 -3 154 -2 153 C-2.33 153 -2.66 153 -3 153 C-3 150.36 -3 147.72 -3 145 C-2.67 145 -2.34 145 -2 145 C-2 141.7 -2 138.4 -2 135 C-2.33 135 -2.66 135 -3 135 C-3.08947612 131.77885957 -2.8704983 129.09510507 -2 126 C-1.65939189 124.33480481 -1.32441604 122.66842534 -1 121 C-1.66 121 -2.32 121 -3 121 C-4.3521517 117.61962074 -3.56157754 115.61368695 -2.484375 112.265625 C-1.33807492 106.90389882 -1.16433797 100.32969214 -2.50390625 94.9921875 C-3.18819774 92.24424528 -3.13188641 89.63937085 -3.125 86.8125 C-3.12757812 85.74644531 -3.13015625 84.68039063 -3.1328125 83.58203125 C-3 81 -3 81 -2 80 C-1.91138008 77.1883662 -1.88477645 74.40141745 -1.90234375 71.58984375 C-1.9037587 70.74780899 -1.90517365 69.90577423 -1.90663147 69.03822327 C-1.91224737 66.33794665 -1.92480252 63.63775172 -1.9375 60.9375 C-1.94251295 59.11132932 -1.94707621 57.28515734 -1.95117188 55.45898438 C-1.96222196 50.97262458 -1.97949721 46.48632616 -2 42 C-2.33 42 -2.66 42 -3 42 C-3 40.35 -3 38.7 -3 37 C-2.34 37 -1.68 37 -1 37 C-1.309375 36.484375 -1.61875 35.96875 -1.9375 35.4375 C-4.03458799 30.62653344 -4.37633521 26.04656242 -3 21 C-2.67 21 -2.34 21 -2 21 C-2 15.72 -2 10.44 -2 5 C-1.34 5 -0.68 5 0 5 C0 3.35 0 1.7 0 0 Z M-2 38 C-1 40 -1 40 -1 40 Z M-2 81 C-1 83 -1 83 -1 83 Z M-2 89 C-1 93 -1 93 -1 93 Z M-2 113 C-1 117 -1 117 -1 117 Z M-2 118 C-1 120 -1 120 -1 120 Z M-2 201 C-1 205 -1 205 -1 205 Z M-2 225 C-1 229 -1 229 -1 229 Z " fill="#7F9094" transform="translate(33,153)"/>
<path d="M0 0 C2.44133237 2.44133237 2.23458132 3.74108811 2.24884033 7.07189941 C2.24164978 7.77536499 2.23445923 8.47883057 2.22705078 9.20361328 C2.22734283 9.9451767 2.22763489 10.68674011 2.22793579 11.45077515 C2.22653994 13.90740571 2.21096698 16.36373478 2.1953125 18.8203125 C2.19158327 20.52139114 2.18873587 22.22247192 2.18673706 23.92355347 C2.17909349 28.40510976 2.15943884 32.88653683 2.1373291 37.36804199 C2.11688622 41.93935396 2.10773868 46.51068677 2.09765625 51.08203125 C2.07619359 60.05474434 2.04204896 69.02736143 2 78 C0.68 77.34 -0.64 76.68 -2 76 C-1.34 76 -0.68 76 0 76 C0 50.92 0 25.84 0 0 Z " fill="#A7EFF8" transform="translate(485,159)"/>
<path d="M0 0 C0.33 0.66 0.66 1.32 1 2 C1.99 2.33 2.98 2.66 4 3 C2.29657414 4.90044131 0.58752883 6.79528874 -1.125 8.6875 C-1.599375 9.21794922 -2.07375 9.74839844 -2.5625 10.29492188 C-4.97010695 12.94654304 -7.2336823 15.17939247 -10.09375 17.375 C-13.707288 20.63884077 -15.36746854 23.94201809 -17.375 28.3125 C-17.72949219 29.05306641 -18.08398438 29.79363281 -18.44921875 30.55664062 C-19.31252725 32.36492195 -20.15812711 34.18164003 -21 36 C-21.33 36 -21.66 36 -22 36 C-23.05996899 27.87357105 -18.68889328 22.68840109 -14.06640625 16.34765625 C-10.99857201 12.37083409 -7.93332195 8.77496493 -4.0625 5.5625 C-0.80624673 3.29315623 -0.80624673 3.29315623 0 0 Z " fill="#2C414F" transform="translate(59,111)"/>
<path d="M0 0 C3.10523991 0.3229019 4.67937694 0.71088325 7.02734375 2.828125 C13.22299031 10.68354599 19.62193508 19.61368417 19 30 C18.34 30 17.68 30 17 30 C16.79246094 29.26136719 16.58492188 28.52273437 16.37109375 27.76171875 C13.06540597 16.87646235 7.62456444 8.36842438 0 0 Z " fill="#414E56" transform="translate(368,38)"/>
<path d="M0 0 C3.12492251 -0.05791844 6.24970766 -0.09356746 9.375 -0.125 C10.26445312 -0.14175781 11.15390625 -0.15851563 12.0703125 -0.17578125 C12.92109375 -0.18222656 13.771875 -0.18867188 14.6484375 -0.1953125 C15.82672119 -0.21102295 15.82672119 -0.21102295 17.02880859 -0.22705078 C19 0 19 0 21 2 C22.31747324 2.69748583 23.64914193 3.36959957 25 4 C21.39590081 4.05800828 17.79192149 4.09359869 14.1875 4.125 C12.65125977 4.15013672 12.65125977 4.15013672 11.08398438 4.17578125 C10.10107422 4.18222656 9.11816406 4.18867188 8.10546875 4.1953125 C7.19949951 4.20578613 6.29353027 4.21625977 5.36010742 4.22705078 C3 4 3 4 0 2 C0 1.34 0 0.68 0 0 Z " fill="#93DDF0" transform="translate(355,133)"/>
<path d="M0 0 C-0.77863403 0.30236572 -0.77863403 0.30236572 -1.57299805 0.61083984 C-3.94459917 1.53196813 -6.31605076 2.45348079 -8.6875 3.375 C-9.50412109 3.69210937 -10.32074219 4.00921875 -11.16210938 4.3359375 C-11.95810547 4.6453125 -12.75410156 4.9546875 -13.57421875 5.2734375 C-14.73123291 5.71961426 -14.73123291 5.71961426 -15.91162109 6.17480469 C-17.58967067 6.83786379 -19.24629208 7.55502886 -20.89453125 8.2890625 C-23 9 -23 9 -26 8 C-20.78800695 5.58928487 -15.51165837 3.3387965 -10.1875 1.1875 C-9.10855469 0.74792969 -8.02960938 0.30835938 -6.91796875 -0.14453125 C-3.88771718 -1.03291826 -2.90256569 -0.88383028 0 0 Z " fill="#EAF3F3" transform="translate(104,331)"/>
<path d="M0 0 C4.77113239 2.30330529 8.52837829 4.94977467 12 9 C11.640625 11.1640625 11.640625 11.1640625 11 13 C10.51789063 12.50628906 10.03578125 12.01257813 9.5390625 11.50390625 C8.90742188 10.86324219 8.27578125 10.22257812 7.625 9.5625 C6.99851562 8.92441406 6.37203125 8.28632812 5.7265625 7.62890625 C4.08276939 5.92117824 4.08276939 5.92117824 2 5 C1.27840576 3.35636866 0.60648579 1.68949614 0 0 Z " fill="#435158" transform="translate(489,113)"/>
<path d="M0 0 C5.19209404 -0.21192221 9.126739 0.4087311 14 2 C14 2.33 14 2.66 14 3 C10.04 3 6.08 3 2 3 C1.34 5.64 0.68 8.28 0 11 C-0.33 11 -0.66 11 -1 11 C-1.14285714 3.57142857 -1.14285714 3.57142857 0 0 Z " fill="#2477A0" transform="translate(180,284)"/>
<path d="M0 0 C5.23064727 2.09225891 6.80232645 5.84180651 9.1796875 10.625 C10 13 10 13 9 16 C6.33434931 13.63053272 4.92561586 11.19636154 3.375 8 C2.73691406 6.700625 2.73691406 6.700625 2.0859375 5.375 C1 3 1 3 0 0 Z " fill="#404D55" transform="translate(504,130)"/>
<path d="M0 0 C2.11386464 2.11386464 2.97008322 3.79267603 4.1875 6.5 C4.55230469 7.2940625 4.91710938 8.088125 5.29296875 8.90625 C5.52628906 9.5971875 5.75960937 10.288125 6 11 C5.67 11.66 5.34 12.32 5 13 C4.401875 12.484375 3.80375 11.96875 3.1875 11.4375 C2.465625 10.963125 1.74375 10.48875 1 10 C0.01 10.33 -0.98 10.66 -2 11 C-2 10.34 -2 9.68 -2 9 C-1.34 8.67 -0.68 8.34 0 8 C0 5.36 0 2.72 0 0 Z " fill="#333D46" transform="translate(37,419)"/>
<path d="M0 0 C5.23175837 -0.38281159 8.37802694 0.78145293 13 3 C13 3.99 13 4.98 13 6 C11.39253944 5.57476184 9.78910164 5.13429874 8.1875 4.6875 C7.29417969 4.44386719 6.40085938 4.20023437 5.48046875 3.94921875 C2.94752262 2.9799181 1.7283504 2.04990396 0 0 Z " fill="#91D5E6" transform="translate(247,414)"/>
<path d="M0 0 C0 3 0 3 -1 6 C-1.66515625 6.41894531 -2.3303125 6.83789062 -3.015625 7.26953125 C-5.31769374 8.91925539 -5.31769374 8.91925539 -5.609375 12.13671875 C-5.65578125 13.30847656 -5.7021875 14.48023438 -5.75 15.6875 C-5.80671875 16.86699219 -5.8634375 18.04648437 -5.921875 19.26171875 C-5.96054687 20.61716797 -5.96054687 20.61716797 -6 22 C-6.33 22 -6.66 22 -7 22 C-8.0735426 9.86726457 -8.0735426 9.86726457 -5.44140625 5.2890625 C-3.71842663 3.36847757 -1.99254393 1.63673252 0 0 Z " fill="#CEEFF5" transform="translate(391,327)"/>
<path d="M0 0 C0.33 0 0.66 0 1 0 C0.98259766 0.90492188 0.98259766 0.90492188 0.96484375 1.828125 C0.95582031 2.62734375 0.94679688 3.4265625 0.9375 4.25 C0.92589844 5.03890625 0.91429687 5.8278125 0.90234375 6.640625 C0.99614694 8.90691002 1.36758937 10.8288895 2 13 C1.01 13 0.02 13 -1 13 C-1.33 13.99 -1.66 14.98 -2 16 C-1.85936865 13.70800823 -1.71234057 11.41640814 -1.5625 9.125 C-1.48128906 7.84882813 -1.40007812 6.57265625 -1.31640625 5.2578125 C-1 2 -1 2 0 0 Z " fill="#94CFE3" transform="translate(369,381)"/>
<path d="M0 0 C3.465 1.485 3.465 1.485 7 3 C3.98968256 3.93423645 3.13349732 4.04449911 0 3 C-0.99 5.97 -1.98 8.94 -3 12 C-4.07156762 7.71372952 -4.0365854 7.33924618 -2.0625 3.75 C-1.68222656 3.04359375 -1.30195313 2.3371875 -0.91015625 1.609375 C-0.60980469 1.07828125 -0.30945313 0.5471875 0 0 Z " fill="#C6EBF2" transform="translate(443,244)"/>
<path d="M0 0 C-5.18082051 3.34594658 -8.84777564 4.56826496 -15 5 C-13.54341873 2.08683746 -11.63839986 1.90792226 -8.625 0.8125 C-7.15933594 0.26529297 -7.15933594 0.26529297 -5.6640625 -0.29296875 C-3 -1 -3 -1 0 0 Z " fill="#49A6CC" transform="translate(155,291)"/>
<path d="M0 0 C3 1 3 1 4.1875 3.1875 C5.07334979 6.25390311 5.14770318 8.82438155 5 12 C4.34 12 3.68 12 3 12 C2.01 8.04 1.02 4.08 0 0 Z " fill="#34414C" transform="translate(382,56)"/>
<path d="M0 0 C1 3 1 3 -0.21484375 5.69921875 C-0.78332031 6.68535156 -1.35179687 7.67148437 -1.9375 8.6875 C-2.50339844 9.68136719 -3.06929688 10.67523438 -3.65234375 11.69921875 C-4.31943359 12.83810547 -4.31943359 12.83810547 -5 14 C-6 12 -6 12 -5.44140625 10.0546875 C-5.00634766 8.97574219 -5.00634766 8.97574219 -4.5625 7.875 C-4.27503906 7.15054687 -3.98757813 6.42609375 -3.69140625 5.6796875 C-3.46324219 5.12539063 -3.23507812 4.57109375 -3 4 C-2.34 4 -1.68 4 -1 4 C-0.67 2.68 -0.34 1.36 0 0 Z " fill="#55626A" transform="translate(513,420)"/>
<path d="M0 0 C6.75 -0.125 6.75 -0.125 9 1 C9 1.66 9 2.32 9 3 C11.475 3.99 11.475 3.99 14 5 C13.01 5.495 13.01 5.495 12 6 C9.92803369 5.26821134 7.8891448 4.44100997 5.875 3.5625 C4.77929688 3.08941406 3.68359375 2.61632812 2.5546875 2.12890625 C1.71164062 1.75636719 0.86859375 1.38382812 0 1 C0 0.67 0 0.34 0 0 Z " fill="#202D3B" transform="translate(467,104)"/>
<path d="M0 0 C2.71675995 0.36712972 4.61063713 0.72744599 6.875 2.3125 C7.431875 3.1478125 7.431875 3.1478125 8 4 C7.5703125 6.10546875 7.5703125 6.10546875 7 8 C5.83035398 6.8572081 4.66435444 5.71068285 3.5 4.5625 C2.8503125 3.92441406 2.200625 3.28632812 1.53125 2.62890625 C0 1 0 1 0 0 Z " fill="#38434D" transform="translate(368,38)"/>
<path d="M0 0 C2.475 0.99 2.475 0.99 5 2 C5 2.99 5 3.98 5 5 C2.64561267 6.42944945 1.51967567 7.08661261 -1.25 6.625 C-1.8275 6.41875 -2.405 6.2125 -3 6 C-2.01 5.34 -1.02 4.68 0 4 C0 2.68 0 1.36 0 0 Z " fill="#4A565D" transform="translate(187,28)"/>
<path d="M0 0 C-2 2 -2 2 -4.3828125 2.1953125 C-5.28773438 2.17210937 -6.19265625 2.14890625 -7.125 2.125 C-8.49011719 2.09792969 -8.49011719 2.09792969 -9.8828125 2.0703125 C-10.58148438 2.04710937 -11.28015625 2.02390625 -12 2 C-12.33 1.34 -12.66 0.68 -13 0 C-8.38926889 -1.29676812 -4.66159911 -0.71109139 0 0 Z " fill="#C7EBF3" transform="translate(467,430)"/>
<path d="M0 0 C6.57142857 5.14285714 6.57142857 5.14285714 8 9 C5.525 8.01 5.525 8.01 3 7 C3 6.34 3 5.68 3 5 C2.01 4.67 1.02 4.34 0 4 C0 2.68 0 1.36 0 0 Z " fill="#45525C" transform="translate(51,442)"/>
<path d="M0 0 C0.33 0 0.66 0 1 0 C1.33 6.27 1.66 12.54 2 19 C0.68 18.34 -0.64 17.68 -2 17 C-1.34 17 -0.68 17 0 17 C0 11.39 0 5.78 0 0 Z " fill="#AAEFF9" transform="translate(485,218)"/>
<path d="M0 0 C0.33 0.66 0.66 1.32 1 2 C0.22265625 4.1640625 0.22265625 4.1640625 -0.9375 6.625 C-1.31777344 7.44226563 -1.69804688 8.25953125 -2.08984375 9.1015625 C-2.39019531 9.72804687 -2.69054688 10.35453125 -3 11 C-3.33 11 -3.66 11 -4 11 C-4.49230769 4.6 -4.49230769 4.6 -2 1.5625 C-1.34 1.046875 -0.68 0.53125 0 0 Z " fill="#2C3741" transform="translate(41,136)"/>
<path d="M0 0 C5.15464734 0.48324819 8.81550319 3.18610761 13 6 C11 7 11 7 8.0625 6.25 C5.19585768 5.07994191 3.93099485 4.31719381 2 2 C1.34 1.34 0.68 0.68 0 0 Z " fill="#5A6870" transform="translate(476,106)"/>
<path d="M0 0 C0.66 0 1.32 0 2 0 C2.33 0.99 2.66 1.98 3 3 C4.65 2.67 6.3 2.34 8 2 C7.67 2.66 7.34 3.32 7 4 C4.6859378 4.73075648 2.35171131 5.40138258 0 6 C0 4.02 0 2.04 0 0 Z " fill="#57ACCD" transform="translate(64,338)"/>
<path d="M0 0 C2.64 0 5.28 0 8 0 C7.67 0.99 7.34 1.98 7 3 C4.69 3 2.38 3 0 3 C0 2.01 0 1.02 0 0 Z " fill="#5D727E" transform="translate(163,463)"/>
<path d="M0 0 C0.66 0.33 1.32 0.66 2 1 C2 1.99 2 2.98 2 4 C0.1875 5.0625 0.1875 5.0625 -2 6 C-2.99 5.67 -3.98 5.34 -5 5 C-4.34 5 -3.68 5 -3 5 C-3.33 4.01 -3.66 3.02 -4 2 C-2.125 0.9375 -2.125 0.9375 0 0 Z " fill="#3D5767" transform="translate(481,453)"/>
<path d="M0 0 C0.93423645 3.01031744 1.04449911 3.86650268 0 7 C-2.0625 8.6875 -2.0625 8.6875 -4 10 C-3.43454163 6.04179141 -2.19097652 3.3340947 0 0 Z " fill="#57676F" transform="translate(169,50)"/>
<path d="M0 0 C0.75 1.75 0.75 1.75 1 4 C-0.9375 6.25 -0.9375 6.25 -3 8 C-3.33 7.34 -3.66 6.68 -4 6 C-2.68 4.02 -1.36 2.04 0 0 Z " fill="#424D54" transform="translate(44,129)"/>
<path d="M0 0 C0.33 0 0.66 0 1 0 C1 4.95 1 9.9 1 15 C0.67 15 0.34 15 0 15 C0 10.05 0 5.1 0 0 Z " fill="#4B5F65" transform="translate(30,387)"/>
<path d="M0 0 C0.33 0 0.66 0 1 0 C1 3.3 1 6.6 1 10 C-1.56687367 6.1496895 -0.83288724 4.41430237 0 0 Z " fill="#465D65" transform="translate(30,215)"/>
<path d="M0 0 C0.99 1.32 1.98 2.64 3 4 C2.01 4.33 1.02 4.66 0 5 C0 3.35 0 1.7 0 0 Z " fill="#536164" transform="translate(43,437)"/>
<path d="M0 0 C0.33 0 0.66 0 1 0 C1 2.97 1 5.94 1 9 C0.67 9 0.34 9 0 9 C0 6.03 0 3.06 0 0 Z " fill="#536367" transform="translate(519,342)"/>
<path d="M0 0 C0.33 0 0.66 0 1 0 C1 2.64 1 5.28 1 8 C0.67 8 0.34 8 0 8 C0 5.36 0 2.72 0 0 Z " fill="#485D65" transform="translate(30,202)"/>
<path d="M0 0 C0.33 0 0.66 0 1 0 C1 2.31 1 4.62 1 7 C0.67 7 0.34 7 0 7 C0 4.69 0 2.38 0 0 Z " fill="#526266" transform="translate(519,330)"/>
<path d="M0 0 C0.33 0 0.66 0 1 0 C1 2.31 1 4.62 1 7 C0.67 7 0.34 7 0 7 C0 4.69 0 2.38 0 0 Z " fill="#465D66" transform="translate(30,330)"/>
<path d="M0 0 C0.33 0 0.66 0 1 0 C1 2.31 1 4.62 1 7 C0.67 7 0.34 7 0 7 C0 4.69 0 2.38 0 0 Z " fill="#506066" transform="translate(519,299)"/>
<path d="M0 0 C0.33 0 0.66 0 1 0 C1 2.31 1 4.62 1 7 C0.67 7 0.34 7 0 7 C0 4.69 0 2.38 0 0 Z " fill="#506165" transform="translate(519,227)"/>
<path d="M0 0 C0.33 0 0.66 0 1 0 C1 2.31 1 4.62 1 7 C0.67 7 0.34 7 0 7 C0 4.69 0 2.38 0 0 Z " fill="#496067" transform="translate(30,226)"/>
<path d="M0 0 C0.33 0 0.66 0 1 0 C1 2.31 1 4.62 1 7 C0.67 7 0.34 7 0 7 C0 4.69 0 2.38 0 0 Z " fill="#516165" transform="translate(519,205)"/>
<path d="M0 0 C0.33 0 0.66 0 1 0 C1 2.31 1 4.62 1 7 C0.67 7 0.34 7 0 7 C0 4.69 0 2.38 0 0 Z " fill="#516165" transform="translate(519,194)"/>
<path d="M0 0 C0.33 0 0.66 0 1 0 C1 2.31 1 4.62 1 7 C0.67 7 0.34 7 0 7 C0 4.69 0 2.38 0 0 Z " fill="#516066" transform="translate(519,179)"/>
<path d="M0 0 C0.33 0 0.66 0 1 0 C1 2.31 1 4.62 1 7 C0.67 7 0.34 7 0 7 C0 4.69 0 2.38 0 0 Z " fill="#4D5E61" transform="translate(30,166)"/>
<path d="M0 0 C2.31 0 4.62 0 7 0 C7 0.33 7 0.66 7 1 C4.69 1 2.38 1 0 1 C0 0.67 0 0.34 0 0 Z " fill="#445D68" transform="translate(123,98)"/>
<path d="M0 0 C0.33 0 0.66 0 1 0 C1 2.31 1 4.62 1 7 C0.67 7 0.34 7 0 7 C0 4.69 0 2.38 0 0 Z " fill="#3C5866" transform="translate(351,92)"/>
<path d="M0 0 C0.66 0.33 1.32 0.66 2 1 C0.35 1.33 -1.3 1.66 -3 2 C-2.01 1.34 -1.02 0.68 0 0 Z " fill="#4A636E" transform="translate(463,464)"/>
<path d="M0 0 C1.32 0.33 2.64 0.66 4 1 C2.68 1.33 1.36 1.66 0 2 C0 1.34 0 0.68 0 0 Z " fill="#4C636D" transform="translate(83,464)"/>
<path d="M0 0 C0.33 0 0.66 0 1 0 C1 1.98 1 3.96 1 6 C0.67 6 0.34 6 0 6 C0 4.02 0 2.04 0 0 Z " fill="#536367" transform="translate(519,352)"/>
<path d="M0 0 C0.33 0 0.66 0 1 0 C1 1.98 1 3.96 1 6 C0.67 6 0.34 6 0 6 C0 4.02 0 2.04 0 0 Z " fill="#485F66" transform="translate(30,315)"/>
<path d="M0 0 C0.33 0 0.66 0 1 0 C1 1.98 1 3.96 1 6 C0.67 6 0.34 6 0 6 C0 4.02 0 2.04 0 0 Z " fill="#4F6166" transform="translate(519,271)"/>
<path d="M0 0 C0.66 0 1.32 0 2 0 C1.34 1.32 0.68 2.64 0 4 C0 2.68 0 1.36 0 0 Z " fill="#565E5E" transform="translate(35,138)"/>
<path d="M0 0 C1.98 0 3.96 0 6 0 C6 0.33 6 0.66 6 1 C4.02 1 2.04 1 0 1 C0 0.67 0 0.34 0 0 Z " fill="#415E68" transform="translate(145,98)"/>
<path d="M0 0 C0.66 1.32 1.32 2.64 2 4 C1.34 4 0.68 4 0 4 C0 2.68 0 1.36 0 0 Z " fill="#4F5D63" transform="translate(35,423)"/>
<path d="M0 0 C0.33 0 0.66 0 1 0 C1 1.65 1 3.3 1 5 C0.67 5 0.34 5 0 5 C0 3.35 0 1.7 0 0 Z " fill="#516065" transform="translate(519,389)"/>
<path d="M0 0 C0.33 0 0.66 0 1 0 C1 1.65 1 3.3 1 5 C0.67 5 0.34 5 0 5 C0 3.35 0 1.7 0 0 Z " fill="#546367" transform="translate(519,359)"/>
<path d="M0 0 C0.33 0 0.66 0 1 0 C1 1.65 1 3.3 1 5 C0.67 5 0.34 5 0 5 C0 3.35 0 1.7 0 0 Z " fill="#516167" transform="translate(519,216)"/>
<path d="M0 0 C0.33 0 0.66 0 1 0 C1 1.65 1 3.3 1 5 C0.67 5 0.34 5 0 5 C0 3.35 0 1.7 0 0 Z " fill="#516063" transform="translate(519,172)"/>
<path d="M0 0 C1.65 0 3.3 0 5 0 C5 0.33 5 0.66 5 1 C3.35 1 1.7 1 0 1 C0 0.67 0 0.34 0 0 Z " fill="#445D66" transform="translate(443,98)"/>
<path d="M0 0 C1.65 0 3.3 0 5 0 C5 0.33 5 0.66 5 1 C3.35 1 1.7 1 0 1 C0 0.67 0 0.34 0 0 Z " fill="#3B5A65" transform="translate(203,98)"/>
<path d="M0 0 C1.65 0 3.3 0 5 0 C5 0.33 5 0.66 5 1 C3.35 1 1.7 1 0 1 C0 0.67 0 0.34 0 0 Z " fill="#425C67" transform="translate(131,98)"/>
<path d="M0 0 C0.33 1.32 0.66 2.64 1 4 C0.34 3.01 -0.32 2.02 -1 1 C-0.67 0.67 -0.34 0.34 0 0 Z " fill="#3B5A67" transform="translate(351,86)"/>
<path d="M0 0 C0.66 0 1.32 0 2 0 C2 0.66 2 1.32 2 2 C1.34 2 0.68 2 0 2 C0 1.34 0 0.68 0 0 Z " fill="#516167" transform="translate(51,448)"/>
<path d="M0 0 C1 4 1 4 1 4 Z " fill="#526366" transform="translate(519,312)"/>
<path d="M0 0 C1 4 1 4 1 4 Z " fill="#505F65" transform="translate(519,290)"/>
<path d="M0 0 C1 4 1 4 1 4 Z " fill="#4E5F64" transform="translate(519,243)"/>
<path d="M0 0 C1 4 1 4 1 4 Z " fill="#516064" transform="translate(519,166)"/>
<path d="M0 0 C4 1 4 1 4 1 Z " fill="#3E5C67" transform="translate(307,98)"/>
<path d="M0 0 C4 1 4 1 4 1 Z " fill="#425E6B" transform="translate(302,98)"/>
<path d="M0 0 C4 1 4 1 4 1 Z " fill="#415C68" transform="translate(259,98)"/>
<path d="M0 0 C4 1 4 1 4 1 Z " fill="#405E69" transform="translate(243,98)"/>
<path d="M0 0 C4 1 4 1 4 1 Z " fill="#415D69" transform="translate(212,98)"/>
<path d="M0 0 C4 1 4 1 4 1 Z " fill="#526467" transform="translate(90,98)"/>
<path d="M0 0 C0.66 0.33 1.32 0.66 2 1 C1.01 1 0.02 1 -1 1 C-0.67 0.67 -0.34 0.34 0 0 Z " fill="#576062" transform="translate(180,34)"/>
<path d="M0 0 C3 1 3 1 3 1 Z " fill="#4C6470" transform="translate(454,465)"/>
<path d="M0 0 C3 1 3 1 3 1 Z " fill="#42606F" transform="translate(435,465)"/>
<path d="M0 0 C3 1 3 1 3 1 Z " fill="#446170" transform="translate(379,465)"/>
<path d="M0 0 C3 1 3 1 3 1 Z " fill="#415F6E" transform="translate(283,465)"/>
<path d="M0 0 C3 1 3 1 3 1 Z " fill="#415F6E" transform="translate(267,465)"/>
<path d="M0 0 C3 1 3 1 3 1 Z " fill="#446272" transform="translate(171,465)"/>
<path d="M0 0 C3 1 3 1 3 1 Z " fill="#42606E" transform="translate(155,465)"/>
<path d="M0 0 C3 1 3 1 3 1 Z " fill="#43606F" transform="translate(123,465)"/>
<path d="M0 0 C3 1 3 1 3 1 Z " fill="#446170" transform="translate(103,465)"/>
<path d="M0 0 C3 1 3 1 3 1 Z " fill="#48626F" transform="translate(94,465)"/>
<path d="M0 0 C0.66 0 1.32 0 2 0 C1.67 0.66 1.34 1.32 1 2 C0.67 1.34 0.34 0.68 0 0 Z " fill="#566164" transform="translate(504,440)"/>
<path d="M0 0 C0.66 0 1.32 0 2 0 C1.67 0.66 1.34 1.32 1 2 C0.67 1.34 0.34 0.68 0 0 Z " fill="#4C5C62" transform="translate(30,408)"/>
<path d="" fill="#536267" transform="translate(0,0)"/>
<path d="" fill="#526366" transform="translate(0,0)"/>
<path d="" fill="#485D66" transform="translate(0,0)"/>
<path d="" fill="#516166" transform="translate(0,0)"/>
<path d="" fill="#536367" transform="translate(0,0)"/>
<path d="" fill="#4F6066" transform="translate(0,0)"/>
<path d="" fill="#506165" transform="translate(0,0)"/>
<path d="" fill="#485D64" transform="translate(0,0)"/>
<path d="M0 0 C0.99 0.495 0.99 0.495 2 1 C1.01 1.495 1.01 1.495 0 2 C0 1.34 0 0.68 0 0 Z " fill="#576262" transform="translate(63,106)"/>
<path d="M0 0 C3 1 3 1 3 1 Z " fill="#405964" transform="translate(436,98)"/>
<path d="M0 0 C3 1 3 1 3 1 Z " fill="#405D67" transform="translate(425,98)"/>
<path d="M0 0 C3 1 3 1 3 1 Z " fill="#3F5B65" transform="translate(420,98)"/>
<path d="M0 0 C3 1 3 1 3 1 Z " fill="#405E69" transform="translate(152,98)"/>
<path d="M0 0 C3 1 3 1 3 1 Z " fill="#425C68" transform="translate(140,98)"/>
<path d="M0 0 C3 1 3 1 3 1 Z " fill="#485E67" transform="translate(112,98)"/>
<path d="M0 0 C3 1 3 1 3 1 Z " fill="#495E67" transform="translate(108,98)"/>
<path d="M0 0 C3 1 3 1 3 1 Z " fill="#4C6067" transform="translate(100,98)"/>
<path d="" fill="#435C68" transform="translate(0,0)"/>
<path d="M0 0 C3 1 3 1 3 1 Z " fill="#49616C" transform="translate(296,61)"/>
<path d="" fill="#545F62" transform="translate(0,0)"/>
<path d="M0 0 C0.33 0.66 0.66 1.32 1 2 C0.34 1.67 -0.32 1.34 -1 1 C-0.67 0.67 -0.34 0.34 0 0 Z " fill="#565F5E" transform="translate(362,28)"/>
<path d="M0 0 C2 1 2 1 2 1 Z " fill="#486270" transform="translate(451,465)"/>
<path d="M0 0 C2 1 2 1 2 1 Z " fill="#44606F" transform="translate(440,465)"/>
<path d="M0 0 C2 1 2 1 2 1 Z " fill="#43606E" transform="translate(395,465)"/>
<path d="M0 0 C2 1 2 1 2 1 Z " fill="#415F6D" transform="translate(387,465)"/>
<path d="M0 0 C2 1 2 1 2 1 Z " fill="#45616F" transform="translate(384,465)"/>
<path d="M0 0 C2 1 2 1 2 1 Z " fill="#425E6E" transform="translate(352,465)"/>
<path d="M0 0 C2 1 2 1 2 1 Z " fill="#466372" transform="translate(296,465)"/>
<path d="M0 0 C2 1 2 1 2 1 Z " fill="#42606F" transform="translate(275,465)"/>
<path d="M0 0 C2 1 2 1 2 1 Z " fill="#436271" transform="translate(240,465)"/>
<path d="M0 0 C2 1 2 1 2 1 Z " fill="#415F6F" transform="translate(235,465)"/>
<path d="M0 0 C2 1 2 1 2 1 Z " fill="#456170" transform="translate(208,465)"/>
<path d="M0 0 C2 1 2 1 2 1 Z " fill="#436170" transform="translate(152,465)"/>
<path d="M0 0 C2 1 2 1 2 1 Z " fill="#426070" transform="translate(120,465)"/>
<path d="M0 0 C2 1 2 1 2 1 Z " fill="#43606F" transform="translate(112,465)"/>
<path d="M0 0 C2 1 2 1 2 1 Z " fill="#486370" transform="translate(91,465)"/>
<path d="M0 0 C2 1 2 1 2 1 Z " fill="#4B626D" transform="translate(88,465)"/>
<path d="M0 0 C2 1 2 1 2 1 Z " fill="#49616B" transform="translate(79,465)"/>
<path d="" fill="#546364" transform="translate(0,0)"/>
<path d="M0 0 C2 1 2 1 2 1 Z " fill="#4D5F63" transform="translate(27,389)"/>
<path d="" fill="#485F66" transform="translate(0,0)"/>
<path d="" fill="#516369" transform="translate(0,0)"/>
<path d="" fill="#475F68" transform="translate(0,0)"/>
<path d="" fill="#485E67" transform="translate(0,0)"/>
<path d="" fill="#546368" transform="translate(0,0)"/>
<path d="" fill="#475E67" transform="translate(0,0)"/>
<path d="" fill="#496067" transform="translate(0,0)"/>
<path d="" fill="#515F66" transform="translate(0,0)"/>
<path d="" fill="#506064" transform="translate(0,0)"/>
<path d="" fill="#526266" transform="translate(0,0)"/>
<path d="" fill="#516267" transform="translate(0,0)"/>
<path d="" fill="#495F64" transform="translate(0,0)"/>
<path d="" fill="#515F64" transform="translate(0,0)"/>
<path d="" fill="#515E5F" transform="translate(0,0)"/>
<path d="" fill="#516165" transform="translate(0,0)"/>
<path d="" fill="#515F63" transform="translate(0,0)"/>
<path d="M0 0 C2 1 2 1 2 1 Z " fill="#535C5C" transform="translate(44,125)"/>
<path d="M0 0 C2 1 2 1 2 1 Z " fill="#566061" transform="translate(61,109)"/>
<path d="" fill="#586363" transform="translate(0,0)"/>
<path d="" fill="#52605F" transform="translate(0,0)"/>
<path d="" fill="#576162" transform="translate(0,0)"/>
<path d="M0 0 C2 1 2 1 2 1 Z " fill="#506168" transform="translate(455,98)"/>
<path d="M0 0 C2 1 2 1 2 1 Z " fill="#415B66" transform="translate(440,98)"/>
<path d="M0 0 C2 1 2 1 2 1 Z " fill="#425E68" transform="translate(417,98)"/>
<path d="M0 0 C2 1 2 1 2 1 Z " fill="#425F69" transform="translate(409,98)"/>
<path d="M0 0 C2 1 2 1 2 1 Z " fill="#415B67" transform="translate(348,98)"/>
<path d="M0 0 C2 1 2 1 2 1 Z " fill="#3C5A67" transform="translate(325,98)"/>
<path d="M0 0 C2 1 2 1 2 1 Z " fill="#435E68" transform="translate(291,98)"/>
<path d="M0 0 C2 1 2 1 2 1 Z " fill="#436069" transform="translate(267,98)"/>
<path d="M0 0 C2 1 2 1 2 1 Z " fill="#405D69" transform="translate(229,98)"/>
<path d="M0 0 C2 1 2 1 2 1 Z " fill="#4A6269" transform="translate(116,98)"/>
<path d="M0 0 C2 1 2 1 2 1 Z " fill="#48616B" transform="translate(284,61)"/>
<path d="" fill="#546065" transform="translate(0,0)"/>
<path d="" fill="#546164" transform="translate(0,0)"/>
<path d="" fill="#555F62" transform="translate(0,0)"/>
<path d="M0 0 C2 1 2 1 2 1 Z " fill="#585F5E" transform="translate(190,28)"/>
<path d="M0 0 C2 1 2 1 2 1 Z " fill="#54605F" transform="translate(353,26)"/>
<path d="M0 0 C2 1 2 1 2 1 Z " fill="#5D625E" transform="translate(205,23)"/>
<path d="" fill="#43606D" transform="translate(0,0)"/>
<path d="" fill="#415E6D" transform="translate(0,0)"/>
<path d="" fill="#446070" transform="translate(0,0)"/>
<path d="" fill="#44606F" transform="translate(0,0)"/>
<path d="" fill="#476373" transform="translate(0,0)"/>
<path d="" fill="#436170" transform="translate(0,0)"/>
<path d="" fill="#456373" transform="translate(0,0)"/>
<path d="" fill="#486370" transform="translate(0,0)"/>
<path d="" fill="#425F6E" transform="translate(0,0)"/>
<path d="" fill="#426271" transform="translate(0,0)"/>
<path d="" fill="#426070" transform="translate(0,0)"/>
<path d="" fill="#42606F" transform="translate(0,0)"/>
<path d="" fill="#42606E" transform="translate(0,0)"/>
<path d="" fill="#446372" transform="translate(0,0)"/>
<path d="" fill="#446070" transform="translate(0,0)"/>
<path d="" fill="#45616F" transform="translate(0,0)"/>
<path d="" fill="#44606F" transform="translate(0,0)"/>
<path d="" fill="#4D646C" transform="translate(0,0)"/>
<path d="" fill="#50636B" transform="translate(0,0)"/>
<path d="" fill="#4A6068" transform="translate(0,0)"/>
<path d="" fill="#4D6066" transform="translate(0,0)"/>
<path d="" fill="#495E64" transform="translate(0,0)"/>
<path d="" fill="#4D5F66" transform="translate(0,0)"/>
<path d="" fill="#4D6167" transform="translate(0,0)"/>
<path d="" fill="#4B6067" transform="translate(0,0)"/>
<path d="" fill="#4F5E66" transform="translate(0,0)"/>
<path d="" fill="#4E5F63" transform="translate(0,0)"/>
<path d="" fill="#4E5D63" transform="translate(0,0)"/>
<path d="" fill="#4D5E63" transform="translate(0,0)"/>
<path d="" fill="#4E5C60" transform="translate(0,0)"/>
<path d="" fill="#526065" transform="translate(0,0)"/>
<path d="" fill="#556265" transform="translate(0,0)"/>
<path d="" fill="#505F64" transform="translate(0,0)"/>
<path d="" fill="#515F62" transform="translate(0,0)"/>
<path d="" fill="#4F6063" transform="translate(0,0)"/>
<path d="" fill="#556467" transform="translate(0,0)"/>
<path d="" fill="#556466" transform="translate(0,0)"/>
<path d="" fill="#4C6163" transform="translate(0,0)"/>
<path d="" fill="#556465" transform="translate(0,0)"/>
<path d="" fill="#516366" transform="translate(0,0)"/>
<path d="" fill="#4B5E63" transform="translate(0,0)"/>
<path d="" fill="#546265" transform="translate(0,0)"/>
<path d="" fill="#4A5E63" transform="translate(0,0)"/>
<path d="" fill="#4B5F65" transform="translate(0,0)"/>
<path d="" fill="#4A5E65" transform="translate(0,0)"/>
<path d="" fill="#516266" transform="translate(0,0)"/>
<path d="" fill="#4B5F64" transform="translate(0,0)"/>
<path d="" fill="#4A5F65" transform="translate(0,0)"/>
<path d="" fill="#485F64" transform="translate(0,0)"/>
<path d="" fill="#526365" transform="translate(0,0)"/>
<path d="" fill="#536167" transform="translate(0,0)"/>
<path d="" fill="#526169" transform="translate(0,0)"/>
<path d="" fill="#516467" transform="translate(0,0)"/>
<path d="" fill="#475E64" transform="translate(0,0)"/>
<path d="" fill="#4F6366" transform="translate(0,0)"/>
<path d="" fill="#536368" transform="translate(0,0)"/>
<path d="" fill="#475F66" transform="translate(0,0)"/>
<path d="" fill="#506266" transform="translate(0,0)"/>
<path d="" fill="#475F68" transform="translate(0,0)"/>
<path d="" fill="#506067" transform="translate(0,0)"/>
<path d="" fill="#475E69" transform="translate(0,0)"/>
<path d="" fill="#486068" transform="translate(0,0)"/>
<path d="" fill="#4E5F65" transform="translate(0,0)"/>
<path d="" fill="#455D65" transform="translate(0,0)"/>
<path d="" fill="#475E66" transform="translate(0,0)"/>
<path d="" fill="#495F66" transform="translate(0,0)"/>
<path d="" fill="#455D65" transform="translate(0,0)"/>
<path d="" fill="#485F67" transform="translate(0,0)"/>
<path d="" fill="#516167" transform="translate(0,0)"/>
<path d="" fill="#546268" transform="translate(0,0)"/>
<path d="" fill="#536064" transform="translate(0,0)"/>
<path d="" fill="#465F67" transform="translate(0,0)"/>
<path d="" fill="#536367" transform="translate(0,0)"/>
<path d="" fill="#485F67" transform="translate(0,0)"/>
<path d="" fill="#485E65" transform="translate(0,0)"/>
<path d="" fill="#4E5E67" transform="translate(0,0)"/>
<path d="" fill="#4E6065" transform="translate(0,0)"/>
<path d="" fill="#495E66" transform="translate(0,0)"/>
<path d="" fill="#516067" transform="translate(0,0)"/>
<path d="" fill="#486067" transform="translate(0,0)"/>
<path d="" fill="#475D64" transform="translate(0,0)"/>
<path d="" fill="#4E5F66" transform="translate(0,0)"/>
<path d="" fill="#506067" transform="translate(0,0)"/>
<path d="" fill="#485F66" transform="translate(0,0)"/>
<path d="" fill="#485E65" transform="translate(0,0)"/>
<path d="" fill="#495C64" transform="translate(0,0)"/>
<path d="" fill="#485E64" transform="translate(0,0)"/>
<path d="" fill="#495D65" transform="translate(0,0)"/>
<path d="" fill="#485C64" transform="translate(0,0)"/>
<path d="" fill="#4A5C62" transform="translate(0,0)"/>
<path d="" fill="#505F61" transform="translate(0,0)"/>
<path d="" fill="#4A5D62" transform="translate(0,0)"/>
<path d="" fill="#546263" transform="translate(0,0)"/>
<path d="" fill="#555E62" transform="translate(0,0)"/>
<path d="" fill="#535F5E" transform="translate(0,0)"/>
<path d="" fill="#535E5E" transform="translate(0,0)"/>
<path d="" fill="#535C5B" transform="translate(0,0)"/>
<path d="" fill="#545E5C" transform="translate(0,0)"/>
<path d="" fill="#58615C" transform="translate(0,0)"/>
<path d="" fill="#546163" transform="translate(0,0)"/>
<path d="" fill="#56615B" transform="translate(0,0)"/>
<path d="" fill="#525F63" transform="translate(0,0)"/>
<path d="" fill="#4F5F5E" transform="translate(0,0)"/>
<path d="" fill="#4F5957" transform="translate(0,0)"/>
<path d="" fill="#59615E" transform="translate(0,0)"/>
<path d="" fill="#565F5E" transform="translate(0,0)"/>
<path d="" fill="#525F65" transform="translate(0,0)"/>
<path d="" fill="#596163" transform="translate(0,0)"/>
<path d="" fill="#556161" transform="translate(0,0)"/>
<path d="" fill="#536164" transform="translate(0,0)"/>
<path d="" fill="#525E62" transform="translate(0,0)"/>
<path d="" fill="#4F5D62" transform="translate(0,0)"/>
<path d="" fill="#515E62" transform="translate(0,0)"/>
<path d="" fill="#505E62" transform="translate(0,0)"/>
<path d="" fill="#575E5C" transform="translate(0,0)"/>
<path d="" fill="#566265" transform="translate(0,0)"/>
<path d="" fill="#525F62" transform="translate(0,0)"/>
<path d="" fill="#4C5A61" transform="translate(0,0)"/>
<path d="" fill="#516168" transform="translate(0,0)"/>
<path d="" fill="#505F63" transform="translate(0,0)"/>
<path d="" fill="#4F6067" transform="translate(0,0)"/>
<path d="" fill="#4E6069" transform="translate(0,0)"/>
<path d="" fill="#456068" transform="translate(0,0)"/>
<path d="" fill="#445D69" transform="translate(0,0)"/>
<path d="" fill="#3F5C68" transform="translate(0,0)"/>
<path d="" fill="#405B68" transform="translate(0,0)"/>
<path d="" fill="#435E67" transform="translate(0,0)"/>
<path d="" fill="#3E5C67" transform="translate(0,0)"/>
<path d="" fill="#3C5966" transform="translate(0,0)"/>
<path d="" fill="#415A66" transform="translate(0,0)"/>
<path d="" fill="#3D5E68" transform="translate(0,0)"/>
<path d="" fill="#3E5B67" transform="translate(0,0)"/>
<path d="" fill="#3F5D69" transform="translate(0,0)"/>
<path d="" fill="#445E6B" transform="translate(0,0)"/>
<path d="" fill="#3F5B68" transform="translate(0,0)"/>
<path d="" fill="#415F6B" transform="translate(0,0)"/>
<path d="" fill="#435F6B" transform="translate(0,0)"/>
<path d="" fill="#435F6A" transform="translate(0,0)"/>
<path d="" fill="#435F6B" transform="translate(0,0)"/>
<path d="" fill="#435E69" transform="translate(0,0)"/>
<path d="" fill="#42606A" transform="translate(0,0)"/>
<path d="" fill="#425F6A" transform="translate(0,0)"/>
<path d="" fill="#435D68" transform="translate(0,0)"/>
<path d="" fill="#445F6A" transform="translate(0,0)"/>
<path d="" fill="#435F6C" transform="translate(0,0)"/>
<path d="" fill="#44616D" transform="translate(0,0)"/>
<path d="" fill="#425F6C" transform="translate(0,0)"/>
<path d="" fill="#415D68" transform="translate(0,0)"/>
<path d="" fill="#445F69" transform="translate(0,0)"/>
<path d="" fill="#425F6B" transform="translate(0,0)"/>
<path d="" fill="#3D5D67" transform="translate(0,0)"/>
<path d="" fill="#425A65" transform="translate(0,0)"/>
<path d="" fill="#465D69" transform="translate(0,0)"/>
<path d="" fill="#425E66" transform="translate(0,0)"/>
<path d="" fill="#466269" transform="translate(0,0)"/>
<path d="" fill="#4B6268" transform="translate(0,0)"/>
<path d="" fill="#3D5865" transform="translate(0,0)"/>
<path d="" fill="#3B5B66" transform="translate(0,0)"/>
<path d="" fill="#425A65" transform="translate(0,0)"/>
<path d="" fill="#3E5C6A" transform="translate(0,0)"/>
<path d="" fill="#455C64" transform="translate(0,0)"/>
<path d="" fill="#455D69" transform="translate(0,0)"/>
<path d="" fill="#455D67" transform="translate(0,0)"/>
<path d="" fill="#475D67" transform="translate(0,0)"/>
<path d="" fill="#405C67" transform="translate(0,0)"/>
<path d="" fill="#455E6A" transform="translate(0,0)"/>
<path d="" fill="#486168" transform="translate(0,0)"/>
<path d="" fill="#496069" transform="translate(0,0)"/>
<path d="" fill="#425E6C" transform="translate(0,0)"/>
<path d="" fill="#48616C" transform="translate(0,0)"/>
<path d="" fill="#455F6A" transform="translate(0,0)"/>
<path d="" fill="#47636C" transform="translate(0,0)"/>
<path d="" fill="#4A626C" transform="translate(0,0)"/>
<path d="" fill="#4A636B" transform="translate(0,0)"/>
<path d="" fill="#47616C" transform="translate(0,0)"/>
<path d="" fill="#49616D" transform="translate(0,0)"/>
<path d="" fill="#48636D" transform="translate(0,0)"/>
<path d="" fill="#48606C" transform="translate(0,0)"/>
<path d="" fill="#48606B" transform="translate(0,0)"/>
<path d="" fill="#46616B" transform="translate(0,0)"/>
<path d="" fill="#48616C" transform="translate(0,0)"/>
<path d="" fill="#46606A" transform="translate(0,0)"/>
<path d="" fill="#516064" transform="translate(0,0)"/>
<path d="" fill="#526163" transform="translate(0,0)"/>
<path d="" fill="#546061" transform="translate(0,0)"/>
<path d="" fill="#506062" transform="translate(0,0)"/>
<path d="" fill="#55605F" transform="translate(0,0)"/>
<path d="" fill="#566163" transform="translate(0,0)"/>
<path d="" fill="#5A615E" transform="translate(0,0)"/>
<path d="" fill="#57625F" transform="translate(0,0)"/>
<path d="" fill="#576463" transform="translate(0,0)"/>
<path d="" fill="#5B625F" transform="translate(0,0)"/>
<path d="" fill="#58605E" transform="translate(0,0)"/>
</svg>
